<?xml version="1.0" encoding="UTF-8" standalone="no"?>
<svg width="21px" height="23px" viewBox="0 0 21 23" version="1.1" xmlns="http://www.w3.org/2000/svg" xmlns:xlink="http://www.w3.org/1999/xlink">
    <!-- Generator: sketchtool 41.2 (35397) - http://www.bohemiancoding.com/sketch -->
    <title>89F62ED2-4742-4920-8901-F8C19A78DE84</title>
    <desc>Created with sketchtool.</desc>
    <defs></defs>
    <g id="desktop-/-home" stroke="none" stroke-width="1" fill="none" fill-rule="evenodd">
        <g id="1-Desktop-Home" transform="translate(-1263.000000, -49.000000)">
            <g id="icon-iniciar-sesion" transform="translate(1263.000000, 49.000000)">
                <path d="M14.9507789,10.4377102 L7.92616875,10.4377102 L9.91051394,8.45969839 C10.1308087,8.24041908 10.1308087,7.88423077 9.91051394,7.66467033 C9.69050125,7.44510989 9.3328396,7.44510989 9.11282692,7.66467033 L6.16522106,10.6024508 C5.94492631,10.8220113 5.94492631,11.1779185 6.16522106,11.3974789 L9.11282692,14.3352594 C9.22283326,14.444899 9.36725184,14.5 9.51167043,14.5 C9.65608901,14.5 9.80050759,14.444899 9.91051394,14.3352594 C10.1308087,14.115699 10.1308087,13.7595106 9.91051394,13.5402313 L7.92616875,11.5622195 L14.9507789,11.5622195 C15.2621815,11.5622195 15.514914,11.3103294 15.514914,10.9999649 C15.514914,10.6896003 15.2621815,10.4377102 14.9507789,10.4377102" id="Fill-4" fill="#FFFFFF" transform="translate(10.757457, 11.000000) rotate(-180.000000) translate(-10.757457, -11.000000) "></path>
                <circle id="Oval-2-Copy" stroke="#FFFFFF" cx="10.5" cy="11" r="9.5"></circle>
            </g>
        </g>
    </g>
</svg>