<?xml version="1.0" encoding="UTF-8" standalone="no"?>
<svg width="77px" height="37px" viewBox="0 0 77 37" version="1.1" xmlns="http://www.w3.org/2000/svg" xmlns:xlink="http://www.w3.org/1999/xlink">
    <!-- Generator: sketchtool 41.2 (35397) - http://www.bohemiancoding.com/sketch -->
    <title>9147BB39-1E27-4D99-A695-68D41DCE36AF</title>
    <desc>Created with sketchtool.</desc>
    <defs>
        <polygon id="path-1" points="0.489737716 25.0443968 20.7457501 25.0443968 20.7457501 0.0204042643 0.489737716 0.0204042643 0.489737716 25.0443968"></polygon>
        <polygon id="path-3" points="0 0.325116129 0 3.43561534 3.10885609 3.43561534 3.10885609 0.325116129 8.27399922e-21 0.325116129"></polygon>
    </defs>
    <g id="desktop-/-home" stroke="none" stroke-width="1" fill="none" fill-rule="evenodd">
        <g id="1-Desktop-Home" transform="translate(-809.000000, -5757.000000)">
            <g id="logo-3" transform="translate(809.000000, 5757.000000)">
                <g id="Group-4" transform="translate(6.000000, 5.000000)">
                    <g id="Group-3" transform="translate(3.663080, 0.590437)">
                        <mask id="mask-2" fill="white">
                            <use xlink:href="#path-1"></use>
                        </mask>
                        <g id="Clip-2"></g>
                        <path d="M9.11001967,14.5047373 C8.39510849,14.5823138 7.66798705,14.8119893 7.13256682,15.3116555 C6.58982042,15.8113218 6.34561506,16.5699838 6.37186714,17.2956604 C6.36576201,18.05982 6.67040818,18.8514672 7.28641619,19.3273108 C8.00254839,19.8966127 8.94884413,20.0474899 9.83897265,20.0633717 C10.6601131,20.0560416 11.5020111,20.0481007 12.2907944,19.7866617 C12.867119,19.5979124 13.3787292,19.24668 13.8085307,18.8233686 C14.144313,18.4812988 14.3512771,18.0341647 14.46178,17.5717596 C14.7072064,16.5534911 14.6296712,15.4973506 14.6431025,14.4589244 C13.1803124,14.4583135 11.7181328,14.4589244 10.2553428,14.4589244 C9.8731614,14.4552593 9.49036951,14.4668653 9.11001967,14.5047373 L9.11001967,14.5047373 Z M8.85421456,0.0651154317 C9.53188442,0.0510661359 10.2095543,-0.0106285977 10.8866136,0.0400710349 C12.3268147,0.0693913043 13.7743419,0.241647887 15.1547127,0.665570116 C16.6321551,1.11575842 18.0406095,1.91473576 19.0278096,3.1229752 C20.0553036,4.36114574 20.5650823,5.95604623 20.6981742,7.54300582 C20.7604466,8.07626822 20.7427417,8.61380649 20.7451837,9.14951225 L20.7451837,24.8126445 C18.7591837,24.8126445 16.7725732,24.8132554 14.7865731,24.8126445 C14.7859626,24.1059039 14.7890152,23.4003849 14.7847416,22.6936442 C14.0722725,23.4144342 13.2566266,24.0558151 12.3152149,24.4479737 C11.45317,24.8156987 10.516032,24.9726843 9.58560959,25.0282707 C8.60024099,25.0630885 7.60815674,25.0533151 6.63499841,24.8859452 C5.33155233,24.6764274 4.05008474,24.1908105 3.02259071,23.3460202 C1.83392115,22.3931115 1.07932661,20.9820735 0.731944496,19.5142275 C0.428519344,18.1789336 0.390057001,16.7666739 0.731944496,15.435045 C1.08970534,14.0191203 1.94381356,12.7320827 3.13004107,11.8769081 C4.65754556,10.7609054 6.57761015,10.3369832 8.44028648,10.2832293 C10.5080953,10.2820077 12.5759041,10.2838402 14.6431025,10.2826185 C14.6315027,9.43599571 14.6980487,8.57715615 14.5032949,7.74580435 C14.3610453,7.10808849 14.0374732,6.49541702 13.5215894,6.08371157 C13.1058298,5.74652848 12.6009352,5.53823239 12.0850514,5.41056705 C11.2327747,5.2010493 10.3487513,5.19005419 9.4763277,5.21876363 C8.51110604,5.25846816 7.51841127,5.45882333 6.70826001,6.01224342 C6.20641801,6.34576148 5.77600608,6.77334874 5.38283546,7.22720208 C4.07511579,5.96276546 2.77899587,4.6867229 1.47677082,3.41678873 C2.49938074,2.27390906 3.74543856,1.29595591 5.19418682,0.759639314 C6.36148841,0.313116044 7.61243034,0.139026944 8.85421456,0.0651154317 L8.85421456,0.0651154317 Z" id="Fill-1" fill="#FFFFFF" mask="url(#mask-2)"></path>
                    </g>
                    <g id="Group-6" transform="translate(45.177990, 0.590437)" fill="#FFFFFF">
                        <path d="M6.24915395,2.53388212 C7.83221515,0.866291794 10.152166,-0.0291981017 12.4391492,0.0227232088 C13.7828891,0.0105064299 15.1388393,0.287827312 16.3470453,0.884616963 C17.9014124,1.65977159 19.1212181,3.03049418 19.8300242,4.60584783 C20.3507921,5.77316105 20.5644718,7.05347949 20.6212495,8.32341366 C20.6572698,9.56769259 20.6395649,10.8125824 20.6438385,12.0574721 C20.643228,16.3144088 20.6438385,20.5707345 20.643228,24.828282 C18.5992292,24.8295037 16.5546199,24.828282 14.5112316,24.8288928 C14.5106211,19.9837183 14.5112316,15.1379329 14.5112316,10.2927584 C14.5222208,9.55486497 14.4611695,8.80475475 14.2212377,8.10351164 C14.0020634,7.44319473 13.6088928,6.83357746 13.0655359,6.39560594 C12.4928743,5.92525995 11.7712475,5.65649081 11.0398525,5.57036252 C10.2309222,5.47507165 9.39268736,5.58013595 8.64664001,5.91365401 C7.95065475,6.22457103 7.35418317,6.75905511 6.98543309,7.42792376 C6.51961138,8.24644795 6.38468792,9.20668677 6.388351,10.1357728 C6.38896151,15.0334795 6.38896151,19.9305753 6.388351,24.828282 C4.34679424,24.828282 2.305848,24.8307254 0.264291244,24.8276712 C0.264901757,16.6485377 0.26184919,8.470015 0.266122784,0.290881506 C2.25944898,0.288438151 4.25277518,0.28904899 6.2467119,0.290881506 C6.25098549,1.03854838 6.2467119,1.78621525 6.24915395,2.53388212 L6.24915395,2.53388212 Z" id="Fill-4"></path>
                    </g>
                    <path d="M32.0410245,6.27496525 C32.0398035,10.8599224 32.0398035,15.4448795 32.0410245,20.0298367 C32.6698533,20.0316692 33.298682,20.0298367 33.9275108,20.0304475 C34.6613479,20.0298367 35.417774,20.0750387 36.1186434,19.816043 C36.9361208,19.5411655 37.5728863,18.8545825 37.8897427,18.0653786 C38.1510424,17.290224 38.1461583,16.4619264 38.1986625,15.6550081 C38.2279671,14.7381389 38.2224725,13.8206588 38.2297987,12.9037895 C38.2096517,12.0406741 38.2377353,11.1751153 38.1760735,10.3126107 C38.1583686,9.75369305 38.1162432,9.1929429 38.0020772,8.64502036 C37.8714273,7.971265 37.4568887,7.37447535 36.9348998,6.94200138 C36.2993553,6.42645331 35.4531838,6.26274847 34.6534112,6.27435441 C33.7828192,6.27557609 32.9116166,6.27435441 32.0410245,6.27496525 L32.0410245,6.27496525 Z M26.0176994,25.4125494 C26.0170889,17.2431894 26.0183099,9.0738293 26.0170889,0.904469228 C29.120939,0.907523423 32.2241785,0.905080067 35.327418,0.905690906 C37.2053572,0.930124464 39.1266428,1.38031277 40.6883361,2.46027603 C41.4746773,3.00697688 42.1492946,3.70883083 42.7030302,4.49009385 C43.3764265,5.43933757 43.8092805,6.54801026 44.0186866,7.69088993 C44.3617951,9.54600781 44.2360293,11.4402194 44.2512922,13.3154949 C44.2470186,15.0643269 44.3404271,16.8296514 44.0290653,18.5595473 C43.8239328,19.7274714 43.3825316,20.8587451 42.6963146,21.8281465 C42.1627259,22.5770351 41.5216868,23.2550663 40.7707554,23.7889395 C39.1535054,24.9446468 37.1327061,25.3942243 35.1711266,25.4088844 C32.1203912,25.4168253 29.0690453,25.4088844 26.0176994,25.4125494 L26.0176994,25.4125494 Z" id="Fill-7" fill="#FFFFFF"></path>
                    <path d="M1.22743716,0.933117575 C1.59985032,0.862260257 2.00339967,0.909905695 2.33124536,1.10903919 C2.80927734,1.38452756 3.12430224,1.92695254 3.10537633,2.4815943 C3.10537633,3.05883711 2.74456292,3.61042468 2.22623706,3.85720361 C1.79826717,4.06366718 1.27261515,4.05755879 0.849529374,3.84010012 C0.393475876,3.6122572 0.0607460817,3.1449654 0.0125155244,2.63552572 C-0.000305256692,2.4125695 -0.000305256692,2.1835049 0.0753984029,1.97093295 C0.239626503,1.45171984 0.696901028,1.04551194 1.22743716,0.933117575" id="Fill-9" fill="#FFFFFF"></path>
                    <g id="Group-13" transform="translate(0.000000, 4.255471)">
                        <mask id="mask-4" fill="white">
                            <use xlink:href="#path-3"></use>
                        </mask>
                        <g id="Clip-12"></g>
                        <path d="M1.22847503,0.361433405 C1.96048058,0.191620178 2.76391619,0.633867575 3.01117411,1.34244075 C3.29017873,2.05345729 2.95012277,2.93306537 2.26329522,3.26658344 C1.78037913,3.51458405 1.16437113,3.49015049 0.709538655,3.19022857 C0.106351432,2.81883849 -0.152506243,2.01253108 0.0904780835,1.35221418 C0.266305938,0.854380435 0.711980709,0.466497704 1.22847503,0.361433405" id="Fill-11" fill="#FFFFFF" mask="url(#mask-4)"></path>
                    </g>
                    <path d="M1.22847503,8.29965202 C1.8975977,8.14694228 2.63998198,8.49817468 2.93974405,9.11695453 C3.2248538,9.66304455 3.13999244,10.3752828 2.73400104,10.8382987 C2.34632504,11.3007038 1.68086545,11.4845663 1.10637235,11.3129205 C0.489753837,11.1382206 0.0129428837,10.541431 0.00500620975,9.89638503 C-0.0560451287,9.15665906 0.502574618,8.43831246 1.22847503,8.29965202 L1.22847503,8.29965202 Z" id="Fill-14" fill="#FFFFFF"></path>
                    <path d="M1.13726433,12.0082996 C1.83752318,11.7993927 2.64706393,12.1658961 2.95171011,12.829878 C3.28932401,13.4938599 3.05549738,14.3801872 2.43155271,14.7894493 C1.99686718,15.0930363 1.4003956,15.1431251 0.91870054,14.9244447 C0.440668561,14.7167595 0.0859602845,14.2500785 0.0163617587,13.7326979 C-0.000122102677,13.4908057 -0.0068377499,13.2397509 0.0816866908,13.0094646 C0.237367604,12.5275127 0.648243111,12.13963 1.13726433,12.0082996 L1.13726433,12.0082996 Z" id="Fill-16" fill="#FFFFFF"></path>
                </g>
            </g>
        </g>
    </g>
</svg>