<?xml version="1.0" encoding="UTF-8" standalone="no"?>
<svg width="127px" height="30px" viewBox="0 0 127 30" version="1.1" xmlns="http://www.w3.org/2000/svg" xmlns:xlink="http://www.w3.org/1999/xlink">
    <!-- Generator: sketchtool 41.2 (35397) - http://www.bohemiancoding.com/sketch -->
    <title>8A3ED9BF-0AA3-4C3E-B6C2-A05483E82628</title>
    <desc>Created with sketchtool.</desc>
    <defs>
        <polygon id="path-1" points="9.52511961 13.9021424 9.52511961 0.441261017 0.352714851 0.441261017 0.352714851 13.9021424 9.52511961 13.9021424"></polygon>
    </defs>
    <g id="desktop-/-home" stroke="none" stroke-width="1" fill="none" fill-rule="evenodd">
        <g id="1-Desktop-Home" transform="translate(-68.000000, -44.000000)">
            <g id="CU-logo" transform="translate(68.707370, 44.000000)">
                <g id="cu-logo" transform="translate(2.000000, 0.000000)">
                    <path d="M7.31013959,6.1080339 C6.18713026,6.1080339 5.31771998,6.50098305 4.70190874,7.2859322 C4.08559233,8.07088136 3.77743413,9.16525424 3.77743413,10.5681017 C3.77743413,13.4876949 4.95500261,14.9474915 7.31013959,14.9474915 C8.29826656,14.9474915 9.49503178,14.7177966 10.9004353,14.2579322 L10.9004353,16.586678 C9.74509459,17.0342034 8.45537672,17.2582034 7.03077649,17.2582034 C4.98379773,17.2582034 3.41825301,16.6806441 2.33414234,15.5255254 C1.24952649,14.3699322 0.707471152,12.7117627 0.707471152,10.5500678 C0.707471152,9.18898305 0.973699635,7.99637288 1.5061566,6.97223729 C2.03861356,5.94857627 2.8039573,5.16315254 3.80168264,4.61691525 C4.79940798,4.07067797 5.96889363,3.79732203 7.31013959,3.79732203 C8.67664442,3.79732203 10.0497166,4.10484746 11.429356,4.71989831 L10.4669931,6.97650847 C9.94110341,6.7439661 9.41167751,6.54084746 8.87871537,6.36762712 C8.34625841,6.19488136 7.82339981,6.1080339 7.31013959,6.1080339" id="Fill-1" fill="#FFFFFF"></path>
                    <path d="M24.2809171,10.5144271 C24.2809171,11.9775458 24.579477,13.0790373 25.1760915,13.8193763 C25.772706,14.5597153 26.6648492,14.9298847 27.8520161,14.9298847 C30.2324119,14.9298847 31.4226098,13.4582237 31.4226098,10.5144271 C31.4226098,7.56493559 30.2389792,6.08995254 27.8712128,6.08995254 C26.684046,6.08995254 25.7888716,6.46202034 25.1856898,7.20520678 C24.582508,7.94839322 24.2809171,9.05178305 24.2809171,10.5144271 M32.818415,15.5117153 C31.6630743,16.6763254 30.0081132,17.2581559 27.8520161,17.2581559 C25.695919,17.2581559 24.0404527,16.6763254 22.885112,15.5117153 C21.7302765,14.3475797 21.1528588,12.6756475 21.1528588,10.4963932 C21.1528588,8.31713898 21.7317921,6.6528 22.8901638,5.50337627 C24.0480304,4.35395254 25.7085484,3.77924068 27.8712128,3.77924068 C30.033372,3.77924068 31.6873228,4.35869831 32.8330651,5.51666441 C33.9783022,6.67557966 34.5506682,8.34134237 34.5506682,10.5144271 C34.5506682,12.6818169 33.9732505,14.3475797 32.818415,15.5117153 Z" id="Fill-3" fill="#FFFFFF"></path>
                    <path d="M51.3099785,17.0791932 L47.9217538,6.80651525 L47.8353685,6.80651525 C47.9571162,8.89654915 48.0182427,10.2903797 48.0182427,10.9889559 L48.0182427,17.0791932 L45.3519164,17.0791932 L45.3519164,3.9856339 L49.4140478,3.9856339 L52.7441771,13.9982441 L52.8017673,13.9982441 L56.3339676,3.9856339 L60.396099,3.9856339 L60.396099,17.0791932 L57.6145923,17.0791932 L57.6145923,10.8817017 C57.6145923,10.5893627 57.6191389,10.2514644 57.6287373,9.86943051 C57.6383356,9.48739661 57.6817809,8.47227797 57.7585679,6.82454915 L57.6721825,6.82454915 L54.0434934,17.0791932 L51.3099785,17.0791932 Z" id="Fill-5" fill="#FFFFFF"></path>
                    <path d="M74.806587,10.1472949 L75.7881467,10.1472949 C76.706054,10.1472949 77.3925901,9.97834576 77.8482601,9.64139661 C78.3039301,9.30397288 78.5317651,8.81278644 78.5317651,8.16783729 C78.5317651,7.51719322 78.3403028,7.03644746 77.9588939,6.72607458 C77.5769798,6.41570169 76.9783446,6.26051525 76.1639987,6.26051525 L74.806587,6.26051525 L74.806587,10.1472949 Z M81.5441378,8.0696 C81.5441378,9.47861695 81.0707866,10.5563797 80.1245894,11.3024136 C79.177887,12.048922 77.8320944,12.421939 76.0867065,12.421939 L74.806587,12.421939 L74.806587,17.0794305 L71.8230094,17.0794305 L71.8230094,3.98539661 L76.3175726,3.98539661 C78.024567,3.98539661 79.3223677,4.32709153 80.2109747,5.01095593 C81.0995817,5.69482034 81.5441378,6.71421017 81.5441378,8.0696 L81.5441378,8.0696 Z" id="Fill-7" fill="#FFFFFF"></path>
                    <path d="M95.5216383,2.93762712 L95.5216383,2.69559322 C96.6254509,1.50155932 97.3791756,0.603186441 97.7833175,0 L101.075053,0 L101.075053,0.187932203 C100.741636,0.498779661 100.171796,0.95959322 99.3665434,1.57179661 C98.5612907,2.184 97.9308293,2.63911864 97.4756645,2.93762712 L95.5216383,2.93762712 Z M98.9674533,11.6337627 C98.0242871,8.80955932 97.4928405,7.21261017 97.374629,6.84244068 C97.2554071,6.47227119 97.1705373,6.17945763 97.1195144,5.96447458 C96.9073399,6.72901695 96.301127,8.61877966 95.3003706,11.6337627 L98.9674533,11.6337627 Z M100.699707,17.0790508 L99.6797534,13.9625085 L94.549677,13.9625085 L93.5292187,17.0790508 L90.3142698,17.0790508 L95.2806687,3.93186441 L98.9290598,3.93186441 L103.914655,17.0790508 L100.699707,17.0790508 Z" id="Fill-9" fill="#FFFFFF"></path>
                    <g id="Group-13" transform="translate(112.351572, 3.356061)">
                        <mask id="mask-2" fill="white">
                            <use xlink:href="#path-1"></use>
                        </mask>
                        <g id="Clip-12"></g>
                        <path d="M9.52522065,10.0870237 C9.52522065,11.2691932 9.06803512,12.2007864 8.15366405,12.8813288 C7.23929298,13.5618712 5.96725632,13.9021424 4.33755407,13.9021424 C2.8356617,13.9021424 1.50755036,13.6397017 0.352714851,13.1138712 L0.352714851,10.5350237 C1.30194316,10.928922 2.10568038,11.2065492 2.76392651,11.3679051 C3.42116229,11.5287864 4.02282856,11.6094644 4.56842014,11.6094644 C5.22262485,11.6094644 5.72477117,11.4931932 6.0748591,11.2601763 C6.42444185,11.0276339 6.59923323,10.6811932 6.59923323,10.2213288 C6.59923323,9.96458305 6.52244627,9.73631186 6.36836716,9.53604068 C6.21428806,9.33624407 5.98796859,9.1435661 5.68940876,8.95848136 C5.3913541,8.77339661 4.78312053,8.47773559 3.86571839,8.07197288 C3.00590648,7.6956339 2.36079496,7.33448136 1.930889,6.98804068 C1.50098305,6.64207458 1.1579676,6.23915932 0.901337492,5.77929492 C0.64470738,5.31943051 0.516392324,4.78221017 0.516392324,4.16715932 C0.516392324,3.00871864 0.938215441,2.09848136 1.78186168,1.43549831 C2.62550791,0.772515254 3.7919625,0.441261017 5.28072025,0.441261017 C6.01221711,0.441261017 6.70986708,0.521938983 7.37417534,0.683294915 C8.03797843,0.844176271 8.73259733,1.07149831 9.45803206,1.36383729 L8.49516396,3.52221017 C7.74447036,3.2355661 7.12360736,3.03529492 6.63308011,2.92234576 C6.1420477,2.80892203 5.65909811,2.75197288 5.18423137,2.75197288 C4.61944305,2.75197288 4.18650603,2.87441356 3.88491513,3.11929492 C3.58332423,3.36417627 3.43278137,3.6835661 3.43278137,4.07746441 C3.43278137,4.32234576 3.49340266,4.53590508 3.61565559,4.7176678 C3.73740334,4.89990508 3.93139145,5.07597288 4.19761994,5.24634576 C4.46384842,5.41624407 5.0943098,5.72234576 6.08900407,6.16417627 C7.40448598,6.74932881 8.30622762,7.33590508 8.79372379,7.92390508 C9.28121997,8.51237966 9.52522065,9.23326102 9.52522065,10.0870237" id="Fill-11" fill="#FFFFFF" mask="url(#mask-2)"></path>
                    </g>
                    <polygon id="Fill-14" fill="#FFFFFF" points="34.3302593 2.33738305 19.5159325 16.6553492 21.3335607 18.2845695 36.1312167 3.98226441"></polygon>
                    <path d="M51.9226577,21.2015051 L51.9226577,25.2600814 C51.9226577,25.9809627 51.6983589,26.5442847 51.2492562,26.9500475 C50.8006587,27.3562847 50.1752491,27.5594034 49.3730274,27.5594034 C48.5920232,27.5594034 47.9827792,27.3558102 47.5447904,26.9481492 C47.1068016,26.5404881 46.8875547,25.9719458 46.8875547,25.2429966 L46.8875547,21.2015051 L47.3624214,21.2015051 L47.3624214,25.2600814 C47.3624214,25.8637424 47.5427697,26.3330983 47.9019508,26.6695729 C48.2616371,27.0055729 48.7703508,27.1735729 49.4280917,27.1735729 C50.0706774,27.1735729 50.5687823,27.0079458 50.9219013,26.6781153 C51.2755254,26.3473356 51.4523375,25.8893695 51.4523375,25.3027932 L51.4523375,21.2015051 L51.9226577,21.2015051 Z" id="Fill-16" fill="#FFFFFF"></path>
                    <path d="M61.7820026,24.3632746 L63.0681843,24.3632746 C63.637014,24.3632746 64.0780338,24.2451051 64.391749,24.0092407 C64.704959,23.7733763 64.8620692,23.4250373 64.8620692,22.9646983 C64.8620692,22.4872746 64.7079901,22.1398847 64.4008422,21.9220542 C64.0936943,21.7046983 63.5925584,21.5960203 62.8979395,21.5960203 L61.7820026,21.5960203 L61.7820026,24.3632746 Z M61.7820026,24.7410373 L61.7820026,27.4736475 L61.3116825,27.4736475 L61.3116825,21.2016475 L62.9161259,21.2016475 C63.7521944,21.2016475 64.3700264,21.3449695 64.7696217,21.6325627 C65.169217,21.9201559 65.3692672,22.3524949 65.3692672,22.9305288 C65.3692672,23.3510034 65.2500454,23.7055119 65.0116017,23.9945288 C64.7736631,24.2830712 64.4114509,24.490461 63.9259755,24.6166983 L65.7562331,27.4736475 L65.1939707,27.4736475 L63.4556553,24.7410373 L61.7820026,24.7410373 Z" id="Fill-18" fill="#FFFFFF"></path>
                    <path d="M74.9471779,24.3804542 L74.9471779,27.0874373 L76.5334349,27.0874373 C77.781223,27.0874373 78.4051171,26.6157085 78.4051171,25.6717763 C78.4051171,24.8108949 77.7473762,24.3804542 76.4318942,24.3804542 L74.9471779,24.3804542 Z M74.9471779,23.9941492 L76.4318942,23.9941492 C77.0648815,23.9941492 77.5250981,23.8963864 77.812544,23.7003864 C78.09999,23.5043864 78.2439655,23.1978102 78.2439655,22.7801831 C78.2439655,22.3625559 78.0818036,22.0593017 77.7574797,21.8708949 C77.4331558,21.6820136 76.9497011,21.5875729 76.3076206,21.5875729 L74.9471779,21.5875729 L74.9471779,23.9941492 Z M74.4768578,21.2012678 L76.325807,21.2012678 C77.1588445,21.2012678 77.7706143,21.3327254 78.1606113,21.5961153 C78.5511134,21.8595051 78.746617,22.2567254 78.746617,22.7887254 C78.746617,23.1522508 78.6273952,23.4545559 78.3889514,23.6961153 C78.1510129,23.9381492 77.8024405,24.092861 77.3447498,24.1616746 L77.3447498,24.1873017 C77.8827637,24.2618102 78.2783176,24.4198441 78.5319166,24.6614034 C78.7855157,24.9034373 78.9123152,25.2399119 78.9123152,25.6717763 C78.9123152,26.2493356 78.7062028,26.6944881 78.2944833,27.0062847 C77.8827637,27.3180814 77.2987786,27.4737424 76.5425281,27.4737424 L74.4768578,27.4737424 L74.4768578,21.2012678 Z" id="Fill-20" fill="#FFFFFF"></path>
                    <path d="M88.6288465,24.8651864 L91.0400582,24.8651864 L90.1226561,22.6043051 C90.0458691,22.4272881 89.9534216,22.1809831 89.846324,21.866339 C89.7629698,22.1411186 89.672543,22.3897966 89.5740334,22.6128475 L88.6288465,24.8651864 Z M91.1971684,25.2600339 L88.4580966,25.2600339 L87.5179615,27.4734576 L86.9966184,27.4734576 L89.7079054,21.1758305 L90.0074756,21.1758305 L92.6631931,27.4734576 L92.1327569,27.4734576 L91.1971684,25.2600339 Z" id="Fill-22" fill="#FFFFFF"></path>
                    <path d="M106.072773,27.4736949 L105.597906,27.4736949 L101.604984,21.9050169 L101.568106,21.9050169 C101.604984,22.5684746 101.623676,23.0691525 101.623676,23.4065763 L101.623676,27.4736949 L101.171542,27.4736949 L101.171542,21.2016949 L101.641862,21.2016949 L105.630238,26.7613559 L105.657517,26.7613559 C105.630238,26.2469153 105.616093,25.7576271 105.616093,25.2944407 L105.616093,21.2016949 L106.072773,21.2016949 L106.072773,27.4736949 Z" id="Fill-24" fill="#FFFFFF"></path>
                    <path d="M115.687663,24.3289153 C115.687663,25.2272881 115.902868,25.9211186 116.33328,26.4118305 C116.763691,26.9025424 117.381523,27.1478983 118.186775,27.1478983 C118.99809,27.1478983 119.618448,26.9044407 120.046839,26.4184746 C120.475734,25.9320339 120.690435,25.2358305 120.690435,24.3289153 C120.690435,23.425322 120.475734,22.7324407 120.046839,22.2502712 C119.618448,21.7685763 119.001121,21.5274915 118.195869,21.5274915 C117.393647,21.5274915 116.774805,21.7704746 116.339847,22.2569153 C115.904889,22.7428814 115.687663,23.4338644 115.687663,24.3289153 M121.202179,24.3289153 C121.202179,25.3245763 120.934435,26.1114237 120.399958,26.6908814 C119.864975,27.2698644 119.127416,27.5593559 118.186775,27.5593559 C117.249166,27.5593559 116.513123,27.2698644 115.97814,26.6908814 C115.443157,26.1114237 115.175918,25.3217288 115.175918,24.3203729 C115.175918,23.322339 115.445683,22.5364407 115.985212,21.9631525 C116.524237,21.3898644 117.26129,21.1027458 118.195869,21.1027458 C119.136509,21.1027458 119.872552,21.3908136 120.404504,21.9674237 C120.935951,22.5435593 121.202179,23.3308814 121.202179,24.3289153" id="Fill-26" fill="#FFFFFF"></path>
                </g>
            </g>
        </g>
    </g>
</svg>