<?xml version="1.0" encoding="UTF-8" standalone="no"?>
<svg width="114px" height="33px" viewBox="0 0 114 33" version="1.1" xmlns="http://www.w3.org/2000/svg" xmlns:xlink="http://www.w3.org/1999/xlink">
    <!-- Generator: sketchtool 41.2 (35397) - http://www.bohemiancoding.com/sketch -->
    <title>549BA4DA-4205-4841-A63A-2199690BF301</title>
    <desc>Created with sketchtool.</desc>
    <defs></defs>
    <g id="desktop-/-home" stroke="none" stroke-width="1" fill="none" fill-rule="evenodd">
        <g id="1-Desktop-Home" transform="translate(-218.000000, -1974.000000)">
            <g id="eventos-por-categorias" transform="translate(208.000000, 1549.000000)">
                <g id="eventos-destacados" transform="translate(0.000000, 194.000000)">
                    <g id="Group-31">
                        <g id="destacdo-lable" transform="translate(10.000000, 231.000000)">
                            <rect id="Rectangle" fill="#C41F46" x="2" y="3" width="110" height="27" rx="13.5"></rect>
                            <path d="M27.9549301,14.3270105 L24.1616679,14.3270105 L22.9909572,10.7207883 C22.8512475,10.2902541 22.4520767,10 21.9998734,10 C21.5482402,10 21.1490695,10.2902541 21.0087895,10.7207883 L19.8340871,14.3270105 L16.0436761,14.3270105 C15.5920429,14.3270105 15.1911615,14.6184051 15.0503113,15.0477988 C14.9123122,15.4777627 15.0645673,15.9476436 15.4289532,16.2122368 L18.4991462,18.4424606 L17.3267248,22.0486828 C17.1887258,22.4763657 17.3392702,22.9485277 17.7053667,23.2131208 C18.0697526,23.4788545 18.5647243,23.4788545 18.9313911,23.2131208 L22.0004436,20.9834673 L25.0700664,23.2131208 C25.2531147,23.3471281 25.4686668,23.4127062 25.6825083,23.4127062 C25.8957795,23.4127062 26.1119019,23.3471281 26.2949502,23.2131208 C26.661617,22.9485277 26.8121614,22.4763657 26.6741624,22.0486828 L25.5011707,18.4424606 L28.5713638,16.2122368 C28.9351794,15.9476436 29.0874345,15.4771924 28.9500057,15.0477988 C28.8085852,14.6184051 28.4077038,14.3270105 27.9549301,14.3270105 Z" id="Shape" fill="#EDC73C"></path>
                            <text id="DESTACADO" font-family="OpenSans-Bold, Open Sans" font-size="10" font-weight="bold" letter-spacing="0.227272734" fill="#FFFFFF">
                                <tspan x="40" y="20">DESTACADO</tspan>
                            </text>
                        </g>
                    </g>
                </g>
            </g>
        </g>
    </g>
</svg>