<?xml version="1.0" encoding="UTF-8" standalone="no"?>
<svg width="12px" height="12px" viewBox="0 0 12 12" version="1.1" xmlns="http://www.w3.org/2000/svg" xmlns:xlink="http://www.w3.org/1999/xlink">
    <!-- Generator: sketchtool 41.2 (35397) - http://www.bohemiancoding.com/sketch -->
    <title>460375D2-69DC-4EE4-BC3A-D35A82CA2B00</title>
    <desc>Created with sketchtool.</desc>
    <defs></defs>
    <g id="desktop-/-home" stroke="none" stroke-width="1" fill="none" fill-rule="evenodd">
        <g id="1-Desktop-Home" transform="translate(-218.000000, -1767.000000)" fill="#C41F46">
            <g id="eventos-por-categorias" transform="translate(208.000000, 1549.000000)">
                <g id="eventos-destacados" transform="translate(0.000000, 194.000000)">
                    <g id="Group-31">
                        <g id="Group-22">
                            <g id="Group-7-Copy-4" transform="translate(10.000000, 21.000000)">
                                <g id="lugar" transform="translate(0.000000, 3.000000)">
                                    <path d="M5.99970271,6.95182958 C4.73271614,6.95182958 3.70173687,5.92085031 3.70173687,4.65386374 C3.70173687,3.38687717 4.73271614,2.3558979 5.99970271,2.3558979 C7.26668928,2.3558979 8.29766855,3.38687717 8.29766855,4.65386374 C8.29766855,5.92085031 7.26668928,6.95182958 5.99970271,6.95182958 M9.98698398,4.33090638 C9.83792673,2.38074077 8.2479828,0.803218274 6.28539576,0.666582467 C3.95016561,0.505103786 2,2.3558979 2,4.66628517 C2,5.49852145 2.24842874,6.26865054 2.68317903,6.90214383 C3.20487939,7.67227292 4.69545182,9.84602439 5.49042379,11.0136395 C5.73885253,11.3738611 6.27297432,11.3738611 6.50898162,11.0136395 C7.30395359,9.85844583 8.79452603,7.67227292 9.31622638,6.90214383 C9.81308386,6.18170048 10.0615126,5.28735702 9.98698398,4.33090638" id="Fill-1"></path>
                                </g>
                            </g>
                        </g>
                    </g>
                </g>
            </g>
        </g>
    </g>
</svg>