<?xml version="1.0" encoding="UTF-8" standalone="no"?>
<svg width="54px" height="49px" viewBox="0 0 54 49" version="1.1" xmlns="http://www.w3.org/2000/svg" xmlns:xlink="http://www.w3.org/1999/xlink">
    <!-- Generator: sketchtool 41.2 (35397) - http://www.bohemiancoding.com/sketch -->
    <title>CD4FEDE2-BB0E-478F-BE91-F0BF76C17E55</title>
    <desc>Created with sketchtool.</desc>
    <defs></defs>
    <g id="desktop-/-home" stroke="none" stroke-width="1" fill="none" fill-rule="evenodd">
        <g id="1-Desktop-Home" transform="translate(-590.000000, -5408.000000)" fill="#3F1922">
            <g id="newsletter-y-redes" transform="translate(-881.000000, 5075.000000)">
                <g id="Group-50" transform="translate(1101.000000, 190.000000)">
                    <g id="Group-40" transform="translate(75.000000, 141.000000)">
                        <g id="instagram" transform="translate(295.642336, 2.000000)">
                            <g id="Group-10" transform="translate(6.000000, 2.000000)">
                                <g id="Group-3" transform="translate(0.000000, 0.548549)">
                                    <path d="M38.5015352,22.1630763 L38.5355289,22.1630763 C38.5355289,19.1325656 38.5610241,16.102055 38.5304298,13.0715444 C38.4751902,7.67339268 35.00274,4.08219391 29.7719688,4.05861356 C23.9641556,4.03241318 18.1554926,4.04464003 12.3468295,4.08830733 C7.12965583,4.1276079 3.63595961,7.77382748 3.62491167,13.1370453 C3.6130139,19.0146639 3.6130139,24.8914092 3.62066247,30.7690278 C3.62831104,36.2877013 7.15940027,39.9356675 12.5108489,39.9417809 C18.2302786,39.9478944 23.9488585,39.9330475 29.6682882,39.9147072 C34.9288038,39.8972403 38.4284489,36.365429 38.4947365,30.9786309 C38.5312797,28.0406949 38.5015352,25.1018856 38.5015352,22.1630763 L38.5015352,22.1630763 Z M21.1120893,43.6325412 C18.1180996,43.6325412 15.12326,43.6561215 12.1292703,43.6273011 C5.29059998,43.5626735 0.0708767369,38.2274027 0.0292345294,31.2214211 C-0.00815847331,25.0669518 -0.0107079962,18.9124824 0.0258351655,12.7580131 C0.0657776911,5.84111276 5.27785236,0.427240867 12.0136919,0.361739916 C18.0467129,0.303225734 24.0822835,0.313705886 30.1144547,0.394927064 C36.8315977,0.484881703 41.9850334,5.77299177 42.0717172,12.6741719 C42.1490527,18.8740552 42.1431038,25.0756852 42.0904137,31.2755685 C42.0309248,38.288537 36.7840066,43.6072141 29.9614833,43.6569949 C27.0116853,43.6779552 24.0618873,43.6604882 21.1120893,43.6604882 L21.1120893,43.6325412 Z" id="Fill-1"></path>
                                </g>
                                <path d="M28.2651158,22.6400105 C28.2404704,18.5728382 25.1512985,15.434906 21.1816913,15.4445128 C17.2622247,15.4541196 14.1195128,18.6793864 14.1110144,22.7002714 C14.102516,26.7456101 17.3599564,30.0494781 21.3023687,29.9935839 C25.212487,29.9376898 28.2897612,26.6879693 28.2651158,22.6400105 M21.2692249,33.6974443 C15.3560314,33.7114179 10.5178868,28.7560526 10.5178868,22.6854245 C10.5187366,16.6837908 15.3118397,11.7380323 21.1655443,11.6987318 C27.0353959,11.6594312 31.9423777,16.6890308 31.9262307,22.7273451 C31.9092339,28.7490659 27.1161308,33.6825974 21.2692249,33.6974443" id="Fill-4"></path>
                            </g>
                            <path d="M38.7034102,16.1657596 C37.2450831,16.1561528 36.0612547,14.9334683 36.0714528,13.4470334 C36.0816508,11.9597252 37.2756774,10.7606211 38.7391036,10.7667346 C40.1855329,10.7737213 41.3991058,12.017366 41.387208,13.4819673 C41.3753103,14.9483152 40.1489897,16.174493 38.7034102,16.1657596 Z" id="Fill-6"></path>
                        </g>
                    </g>
                </g>
            </g>
        </g>
    </g>
</svg>