<?xml version="1.0" encoding="UTF-8" standalone="no"?>
<svg width="47px" height="68px" viewBox="0 0 47 68" version="1.1" xmlns="http://www.w3.org/2000/svg" xmlns:xlink="http://www.w3.org/1999/xlink">
    <!-- Generator: sketchtool 41.2 (35397) - http://www.bohemiancoding.com/sketch -->
    <title>03107EBA-0C65-4F30-B2A5-A0C016C89130</title>
    <desc>Created with sketchtool.</desc>
    <defs>
        <polygon id="path-1" points="4.60204989 6.33866779 4.60204989 0.250956261 0.352083069 0.250956261 0.352083069 6.33866779 4.60204989 6.33866779"></polygon>
        <polygon id="path-3" points="0.471560538 3.05419473 2.37050721 3.05419473 2.37050721 0.226572708 0.471560538 0.226572708 0.471560538 3.05419473"></polygon>
        <polygon id="path-5" points="0 56.0914469 35.7382325 56.0914469 35.7382325 -6.10838952e-05 0 -6.10838952e-05"></polygon>
    </defs>
    <g id="desktop-/-home" stroke="none" stroke-width="1" fill="none" fill-rule="evenodd">
        <g id="1-Desktop-Home" transform="translate(-569.000000, -5742.000000)">
            <g id="logo-2" transform="translate(569.000000, 5742.000000)">
                <g id="Group-2" transform="translate(5.000000, 5.000000)">
                    <path d="M13.3521109,8.78587982 C13.3423427,8.78282563 13.3319639,8.77977143 13.3221957,8.77732808 C13.3069329,8.84757456 13.2886175,8.91782103 13.2770177,8.98867835 C13.0444121,10.3991055 12.8142486,11.8101434 12.5792009,13.2205706 C12.2324293,15.3004772 11.8813841,17.3791621 11.534002,19.4584579 C11.4772243,19.8011385 11.3740475,20.1487059 11.3935839,20.4877215 C11.4216675,20.9635651 11.5443807,21.4333002 11.6390103,21.976336 C11.7568394,21.2677629 11.8624582,20.6306578 11.9692981,19.9941637 C12.218998,18.5049383 12.469919,17.0151021 12.719619,15.5252659 C12.9766451,13.9877843 13.2342818,12.4503027 13.4882553,10.9122102 C13.5303808,10.6581012 13.6005898,10.3966621 13.5773903,10.1462182 C13.5340439,9.68992146 13.4302566,9.23912232 13.3521109,8.78587982 L13.3521109,8.78587982 Z M27.4732854,21.9097546 C27.5044216,21.8333997 27.521516,21.8053011 27.5264001,21.77537 C27.7895314,20.197573 28.0502206,18.6191652 28.3133519,17.0407573 C28.6308188,15.1355507 28.9562225,13.2315657 29.2627002,11.3245265 C29.3426774,10.8273036 29.5093476,10.3349674 29.3841923,9.81392177 C29.301773,9.47307364 29.2608686,9.12245208 29.2016488,8.7761064 C28.9043288,10.3416866 28.640587,11.9017693 28.3798978,13.4630736 C28.044726,15.4709013 27.7077226,17.4787289 27.3810979,19.488389 C27.318215,19.8762717 27.2589952,20.2727062 27.2742581,20.6624215 C27.2895209,21.062521 27.3975818,21.4589555 27.4732854,21.9097546 L27.4732854,21.9097546 Z M26.3395621,15.1025654 C26.3505513,15.0995112 26.3621511,15.096457 26.3731403,15.0934028 C26.4451809,14.6548204 26.5172215,14.2168489 26.5904831,13.7782665 C26.8401831,12.2878195 27.0923251,10.7979833 27.340804,9.30692544 C27.611872,7.68087217 27.8713402,6.05298637 28.1533974,4.42876562 C28.3109098,3.5235023 28.2932049,2.7110865 28.0398419,1.93409936 C28.0001585,2.18271081 27.9647487,2.41421877 27.9262864,2.64511589 C27.6240822,4.44647994 27.3218781,6.24723316 27.019674,8.04859721 C26.7638689,9.57874878 26.5068428,11.1089003 26.2540902,12.6396627 C26.1960914,12.9896735 26.0984093,13.3457926 26.1167247,13.6933599 C26.1417557,14.1661493 26.2608059,14.6334411 26.3395621,15.1025654 L26.3395621,15.1025654 Z M20.6794925,5.35601914 C20.3913302,7.07736329 20.1117151,8.74189942 19.8339315,10.4064355 C19.515854,12.3110314 19.2283022,14.2211248 18.8693203,16.1177797 C18.719134,16.9137028 18.8162057,17.6613697 18.9993597,18.4243076 C19.0671267,18.1518734 19.1129152,17.8776067 19.1587037,17.6039509 C19.4084036,16.1141147 19.6587141,14.6242785 19.9071931,13.1338314 C20.1947449,11.4124873 20.4542131,9.68625643 20.7777852,7.97224235 C20.9420133,7.10301852 20.9340766,6.26311497 20.6794925,5.35601914 L20.6794925,5.35601914 Z M10.5284865,15.0488115 C10.6212845,14.4911156 10.7140825,13.9334196 10.8081016,13.3757237 C11.0565805,11.8938284 11.30567,10.4125439 11.5535384,8.93003781 C11.8093435,7.40049709 12.034623,5.86484798 12.3295009,4.34324816 C12.4845713,3.54304914 12.3777315,2.78621969 12.2098403,1.98052312 C12.1805357,2.03733114 12.1640518,2.05626715 12.1609993,2.07703567 C11.9650245,3.24862477 11.7702707,4.42021387 11.5755169,5.59180297 C11.1750201,7.99850842 10.7995544,10.4101006 10.3612058,12.8106976 C10.2189562,13.5889065 10.3587637,14.3109181 10.5284865,15.0488115 L10.5284865,15.0488115 Z M19.5463797,21.8981487 C19.5549268,21.8993703 19.5640845,21.900592 19.5726317,21.9018137 C19.6123151,21.6666407 19.652609,21.4314677 19.6922924,21.1956839 C19.9761811,19.4987733 20.2600698,17.8012518 20.543348,16.1037304 C20.8296788,14.390938 21.0867049,12.6720372 21.4145506,10.9665749 C21.5610738,10.2042479 21.3870775,9.49995055 21.2564276,8.77488472 C21.180724,9.13283634 21.1208937,9.49078797 21.0610634,9.84873959 C20.8138054,11.322694 20.565937,12.7966483 20.3199001,14.2706027 C20.0311273,15.9998878 19.7423545,17.7291728 19.4572447,19.4590687 C19.3998564,19.8090795 19.3058374,20.1645877 19.3247633,20.5121551 C19.3497944,20.9770035 19.4682339,21.4363544 19.5463797,21.8981487 L19.5463797,21.8981487 Z M11.0913798,18.4676771 C11.3630583,16.8342938 11.6298526,15.2247332 11.899089,13.6163942 C12.2171665,11.7111875 12.5437911,9.80842422 12.8514899,7.90199587 C12.9296356,7.42004394 13.0877586,6.94358956 12.969319,6.43903659 C12.8875102,6.08963671 12.8453848,5.72985257 12.7855544,5.37495514 C12.5865271,6.35046494 12.4204674,7.32047719 12.2586814,8.29171111 C11.855132,10.7142984 11.467456,13.1405507 11.0431492,15.5600837 C10.8734265,16.5307068 10.7415556,17.4872806 11.0913798,18.4676771 L11.0913798,18.4676771 Z M20.1446828,1.98052312 C20.131862,1.98418815 20.1184307,1.98785318 20.1056099,1.99090738 C20.0372324,2.40444535 19.9700759,2.81798331 19.9004774,3.23152128 C19.651388,4.71280573 19.400467,6.19347933 19.1538196,7.67476378 C18.8656572,9.403438 18.6122942,11.1388314 18.2801749,12.8583431 C18.1287676,13.6383844 18.305206,14.3573419 18.4315822,15.0976787 C18.5231592,14.6358844 18.5988629,14.1740902 18.6763981,13.7122959 C18.924877,12.2310115 19.175798,10.749727 19.4224454,9.26844259 C19.6929029,7.64300015 19.9609182,6.01755772 20.2277126,4.39211528 C20.2838798,4.05004547 20.3882776,3.70431062 20.3699622,3.36529501 C20.3449312,2.90105741 20.2240495,2.44170652 20.1446828,1.98052312 L20.1446828,1.98052312 Z M28.6473027,5.42504394 C28.6289873,5.4244331 28.6112824,5.42382226 28.592967,5.42321142 C28.5435154,5.7145816 28.4928428,6.00534094 28.4440017,6.29732195 C28.1961333,7.7786064 27.9476543,9.25989085 27.7010069,10.7411753 C27.428718,12.3739478 27.1515449,14.0061095 26.8890241,15.6407145 C26.7773002,16.3370709 26.5648415,17.0297622 26.7730266,17.7481088 C26.8395725,17.9765626 26.86033,18.2184548 26.9012344,18.4542387 C27.222975,16.7829833 27.5013691,15.119058 27.7791526,13.4545219 C28.0984511,11.542596 28.4189707,9.63067009 28.7346061,7.71874418 C28.7883313,7.39316702 28.8695296,7.06209231 28.8512141,6.73834767 C28.8267936,6.29793279 28.7193433,5.86240462 28.6473027,5.42504394 L28.6473027,5.42504394 Z M19.8272158,0.0209517759 C19.9181823,0.0154542254 19.9896124,0.0069024801 20.0610424,0.0069024801 C21.2344492,0.00629164115 22.4084664,0.0111783527 23.5824836,0.00323744642 C23.7766269,0.00201576852 23.8358467,0.0637105021 23.8682039,0.257346448 C24.3584462,3.23152128 24.8596776,6.20386359 25.3566355,9.17681675 C25.4952221,10.0045035 25.6277035,10.8328011 25.8041418,11.6653746 C25.8596986,11.3520142 25.9183079,11.0392647 25.970812,10.7252935 C26.3297939,8.58185961 26.6875547,6.43781491 27.044705,4.29377021 C27.271816,2.93098852 27.5007585,1.56881767 27.7187118,0.20420346 C27.7437429,0.0478286895 27.7992996,0.00445912431 27.9482649,0.00506996326 C29.1546393,0.00934583588 30.3610137,0.00873499694 31.5667777,0.00445912431 C31.7059747,0.00445912431 31.7584789,0.0459961727 31.7822889,0.191986681 C32.1663018,2.53638656 32.5564199,4.8801756 32.9483695,7.2233538 C33.3134565,9.40710303 33.6852591,11.5902414 34.0491251,13.7739907 C34.4630532,16.2613269 34.8696551,18.7498847 35.2817516,21.2372209 C35.4227802,22.0893412 35.5699139,22.9402399 35.7182687,23.8149613 L31.7108588,23.8149613 C31.0637147,19.9318581 30.41596,16.0438682 29.7682053,12.1558783 C29.7566055,12.1546566 29.7456163,12.1528241 29.734627,12.1516024 C29.0868723,16.0395923 28.4385071,19.9269714 27.7895314,23.823513 C27.6973439,23.8277889 27.6265243,23.8338973 27.5550942,23.8338973 C26.3731403,23.8345081 25.1911864,23.8308431 24.0092325,23.8381731 C23.8364572,23.8393948 23.7747954,23.7929711 23.7461012,23.6176603 C23.4335184,21.7039019 23.1099463,19.791976 22.7918688,17.8794392 C22.4908857,16.0701343 22.1935657,14.2602185 21.8944141,12.4503027 C21.8803723,12.3629527 21.8602254,12.2768244 21.8046687,12.183366 C21.1587455,16.056085 20.5128223,19.928193 19.8632361,23.8241239 C19.7838694,23.8277889 19.7057237,23.835119 19.6269674,23.835119 C18.4535607,23.8357298 17.2795435,23.8314539 16.1055262,23.8393948 C15.9107725,23.8412273 15.8527737,23.7801434 15.821027,23.5865075 C15.4461718,21.297694 15.0578853,19.0113238 14.6757039,16.7237319 C14.4278354,15.2412258 14.1836301,13.7581088 13.9375932,12.2756027 C13.9333196,12.2475041 13.9247724,12.2206272 13.881426,12.1925286 C13.8081644,12.6182834 13.7324607,13.0440381 13.6622517,13.4704037 C13.4290356,14.8728899 13.1994825,16.2765978 12.9662664,17.6796949 C12.7458711,19.002772 12.5230337,20.3252384 12.3014173,21.6477047 C12.1890829,22.3171842 12.0724748,22.985442 11.9662455,23.6561431 C11.9467091,23.7813651 11.9137413,23.8375623 11.7739338,23.8369515 C10.527876,23.8320648 9.28120762,23.8332864 8.03453929,23.8326756 C8.01072927,23.8326756 7.98691925,23.8241239 7.93624663,23.8143504 C7.29276553,19.9526266 6.64806339,16.0829619 6.00336126,12.213908 C5.98809843,12.2120755 5.97283559,12.210243 5.95757276,12.2084104 C5.90445809,12.502224 5.84706983,12.7948158 5.79822876,13.0892402 C5.37270093,15.6559855 4.94900465,18.2233415 4.52347682,20.7906976 C4.36535385,21.7466606 4.20173626,22.7026235 4.04727638,23.6598082 C4.02651892,23.7880844 3.98195145,23.8461141 3.8476385,23.8375623 C3.71332556,23.8283997 3.57779159,23.8357298 3.4099004,23.8357298 C3.47766739,23.4111967 3.53810822,23.0227032 3.60221212,22.6348204 C4.01980328,20.1230507 4.43922597,17.6112809 4.85681712,15.0995112 C5.11933788,13.5211033 5.39895301,11.944528 5.62972707,10.3612335 C5.68101019,10.0081686 5.56134957,9.62883757 5.51434004,9.26294504 C5.49358258,9.10290524 5.45756229,8.94530879 5.38796377,8.78221479 C4.55278146,13.79537 3.71698864,18.8085253 2.88119581,23.8229022 L2.27556654,23.8229022 C2.34760712,23.3794331 2.41598462,22.9518458 2.48680417,22.5248694 C2.70964155,21.1773587 2.93125791,19.829848 3.15653735,18.4829481 C3.4050163,17.000442 3.65837935,15.5185467 3.90563727,14.0360406 C4.22249372,12.1393856 4.53507657,10.241509 4.85071199,8.34424326 C4.91176333,7.9777399 4.96121491,7.60818233 5.04607627,7.24656568 C5.16390536,6.74262355 4.9831934,6.2698342 4.93129976,5.78421724 C4.91603692,5.64067009 4.87940612,5.49956629 4.82690197,5.3554083 C3.80185,11.508389 2.77679803,17.6613697 1.74991451,23.823513 L1.14611678,23.823513 C1.20899965,23.4344086 1.26882997,23.0556885 1.33171284,22.6769683 C1.64612724,20.7882543 1.96237317,18.8995403 2.27678756,17.0102154 C2.54175037,15.4159258 2.80427113,13.8216361 3.06923394,12.2273464 C3.3549542,10.5133324 3.642506,8.80053996 3.92883678,7.08713671 C4.11809593,5.95525214 4.30796559,4.82397841 4.49295115,3.69148301 C4.51492963,3.55709844 4.52836092,3.4153838 4.50943501,3.28222091 C4.4496047,2.85890952 4.3720695,2.43865233 4.25668247,2.01228674 C4.20173626,2.32870132 4.14434801,2.64450505 4.09184385,2.96091963 C3.72492531,5.16116151 3.35739625,7.36079256 2.99230925,9.56103445 C2.59425452,11.9604098 2.2010839,14.3610069 1.80119764,16.7603823 C1.42145831,19.0400332 1.03256129,21.3178517 0.658927096,23.5987243 C0.625959373,23.7996903 0.553918793,23.8601633 0.366491185,23.8381731 C0.263924936,23.8259564 0.158916634,23.8357298 0.00811982801,23.8357298 C1.33293387,15.881385 2.65347432,7.95391718 3.9752358,0.0185084201 L7.97348795,0.0185084201 C8.62368471,3.91871509 9.27204992,7.81220254 9.92102565,11.7050791 L9.95338286,11.7050791 C10.0669383,11.0288804 10.1804938,10.3526817 10.2934388,9.67648301 C10.6438735,7.58008374 10.9949187,5.48368448 11.3441323,3.38728521 C11.5150761,2.35863242 11.6884619,1.33059048 11.8471954,0.300105175 C11.8819946,0.0740947642 11.9570878,-0.00287094305 12.1988511,0.000183251684 C13.3478373,0.0154542254 14.497434,0.0111783527 15.6470307,0.00323744642 C15.8338478,0.00201576852 15.9132145,0.0484395285 15.9449612,0.246351347 C16.2502179,2.13689789 16.5658533,4.02561191 16.8802677,5.91493677 C17.1812508,7.72424173 17.4840654,9.53354669 17.7862696,11.3422408 C17.8064165,11.4619652 17.8277845,11.5810788 17.8796781,11.7044683 C18.5286538,7.81281338 19.1770191,3.92115845 19.8272158,0.0209517759 L19.8272158,0.0209517759 Z" id="Fill-1" fill="#FFFFFF"></path>
                    <path d="M6.71821138,27.9194325 C6.44225933,28.9902332 6.16630728,30.0610338 5.89096575,31.1318345 C5.64676039,32.0786349 5.39889196,33.0248244 5.16384431,33.9734573 C5.12171888,34.1420488 5.04723625,34.1915268 4.8805661,34.1872509 C4.45992237,34.1762558 4.03805763,34.1701474 3.61802442,34.1890834 C3.40922884,34.198246 3.34268288,34.1151719 3.29750489,33.928866 C2.83595677,32.0120534 2.36586147,30.0970733 1.89820821,28.1814824 C1.8792823,28.1051275 1.85730382,28.0293835 1.80541018,27.9560828 L1.80541018,28.8405776 L1.80541018,33.8702255 C1.80541018,34.1811425 1.80479967,34.1823642 1.48428014,34.182975 C1.07157309,34.1835859 0.658255531,34.1750341 0.245548483,34.1854184 C0.0715521686,34.1896943 0.00195364283,34.145103 0.00256415621,33.9569646 C0.00744826329,31.308367 0.00744826329,28.6597693 0.0031746696,26.0117825 C0.0031746696,25.8334175 0.0605629277,25.7705011 0.240664376,25.7723336 C1.07401515,25.778442 1.90797643,25.7802745 2.7413272,25.7686686 C2.93241789,25.7662252 2.96843818,25.8645703 3.00262693,26.0093391 C3.39579755,27.6848703 3.79141022,29.3591799 4.18702289,31.0341003 C4.2102224,31.133667 4.23708499,31.2320121 4.30851505,31.3321897 C4.48922702,30.6168973 4.66932846,29.9016049 4.85004043,29.1857016 C5.12110837,28.1124576 5.39583939,27.0398244 5.65774963,25.9647479 C5.69499095,25.8114273 5.76214742,25.7717227 5.90500755,25.7723336 C6.71393779,25.7766095 7.52347854,25.7790528 8.33301928,25.7723336 C8.51067868,25.7705011 8.55158307,25.8456343 8.55158307,26.0044524 C8.54853051,28.6530501 8.54791999,31.3010369 8.55158307,33.9496346 C8.55158307,34.1279995 8.49419482,34.1915268 8.31226183,34.1866401 C7.87574476,34.1762558 7.43800666,34.1732016 7.00148959,34.1878618 C6.79452555,34.194581 6.74568448,34.122502 6.746295,33.925201 C6.75301064,32.0053342 6.74995808,30.0860782 6.74934756,28.1668223 L6.74934756,27.9243192 C6.73896884,27.9224867 6.72859011,27.921265 6.71821138,27.9194325" id="Fill-3" fill="#FFFFFF"></path>
                    <path d="M33.9061429,29.6790762 C33.8243341,29.0187593 33.7779351,28.3315655 33.6448431,27.662086 C33.5398348,27.1361537 33.2150417,26.9357985 32.7016,26.9370202 C32.2284521,26.9388527 31.927469,27.1764691 31.7839983,27.6785787 C31.7357678,27.8483919 31.6857057,28.0249244 31.6820426,28.1996243 C31.6600641,29.27409 31.6295385,30.3485557 31.6502959,31.4224106 C31.6576221,31.7919682 31.7736196,32.1694666 31.8963328,32.5237532 C32.0172145,32.8725423 32.3200291,33.0075377 32.6851161,33.0185328 C33.066687,33.0295279 33.3695016,32.90003 33.5477715,32.5536843 C33.6210331,32.4119697 33.686358,32.2537624 33.7016209,32.0973876 C33.7785456,31.3026862 33.8377654,30.5061522 33.9061429,29.6790762 M29.6765061,29.5453025 C29.763199,28.8855964 29.8132611,28.1330429 29.9695526,27.4030903 C30.1588117,26.5198172 30.7485676,25.9651754 31.6338121,25.7642094 C32.4006169,25.5907312 33.1704742,25.5882878 33.9354475,25.8002489 C34.801766,26.0396978 35.3152078,26.6273249 35.5056879,27.4782235 C35.6198539,27.9876632 35.6839578,28.5160389 35.6961681,29.0376953 C35.7218097,30.1036093 35.7737033,31.17441 35.5661288,32.2317722 C35.3127657,33.5218641 34.5203193,34.220053 33.2028314,34.2799152 C32.7302941,34.3012945 32.2449359,34.2988512 31.7815563,34.2163879 C30.6911794,34.0215303 30.0336565,33.3282281 29.8767545,32.1767967 C29.7625885,31.3381148 29.7442731,30.4866053 29.6765061,29.5453025" id="Fill-5" fill="#FFFFFF"></path>
                    <path d="M11.7667297,25.7750824 L11.7667297,26.1275364 C11.7667297,27.949669 11.7636771,29.7724124 11.7703928,31.594545 C11.7716138,31.8181121 11.8003079,32.0490092 11.8619698,32.2634137 C12.0255874,32.8259963 12.3870113,33.0526176 13.0005773,33.0110805 C13.4963141,32.9774844 13.8510224,32.6439663 13.9334417,32.1162015 C13.9645779,31.9176788 13.9816723,31.7142694 13.9822828,31.5133034 C13.9859459,29.7070527 13.9841143,27.9008019 13.9841143,26.0945511 L13.9841143,25.7909642 L15.7973391,25.7909642 C15.8022232,25.8667082 15.8126019,25.9436739 15.8126019,26.0206396 C15.8132124,27.9160729 15.8180965,29.8115061 15.8113809,31.7063285 C15.8071073,32.9139571 15.2576452,33.7501957 14.2075622,34.1038714 C13.8522434,34.222985 13.4670095,34.2791822 13.0909332,34.3042266 C12.5072824,34.3433203 11.9285158,34.2791822 11.3778327,34.0556151 C10.4828201,33.6909443 10.0285981,33.0049721 9.9553365,32.0606151 C9.92420032,31.6580723 9.94007366,31.2512535 9.93946315,30.8468781 C9.93824212,29.2348742 9.94129469,27.6228702 9.93518956,26.011477 C9.93457904,25.8379988 9.96693625,25.7665306 10.1586375,25.7708065 C10.6824579,25.7830233 11.2068889,25.7750824 11.7667297,25.7750824" id="Fill-7" fill="#FFFFFF"></path>
                    <path d="M17.0469379,31.5647972 L18.8424577,31.5647972 C18.8638257,31.7950834 18.878478,32.0113204 18.9053406,32.2263357 C18.9584553,32.6508688 19.1513775,32.885431 19.5140225,32.9819435 C19.9432134,33.0955596 20.3785094,32.9843869 20.5793683,32.7101202 C20.7985426,32.4108091 20.839447,31.9123645 20.5982942,31.6173293 C20.3931617,31.3662745 20.1312515,31.148205 19.8589625,30.9680075 C19.3143846,30.6063908 18.7258497,30.3089123 18.1904294,29.934468 C17.1214205,29.1868011 16.9114039,28.0671333 17.327774,26.9486872 C17.5719794,26.2944787 18.104347,25.9475222 18.7539333,25.7856499 C19.5176855,25.595679 20.293648,25.576743 21.0604529,25.7667139 C21.9536339,25.9884484 22.4548654,26.6212776 22.5067591,27.544866 C22.5427794,28.1954095 22.5427794,28.1954095 21.8980772,28.1954095 C21.5745051,28.1954095 21.2503225,28.1905228 20.9273609,28.1966312 C20.7881639,28.1996854 20.7283336,28.1630351 20.7185654,28.0091036 C20.7063551,27.8093593 20.6770504,27.6041174 20.612336,27.415979 C20.4908439,27.0629141 20.2588488,26.9297512 19.858352,26.938303 C19.4529711,26.9468547 19.1703034,27.1209438 19.0585795,27.4483535 C18.9230455,27.8466205 18.9908125,28.2247298 19.3131635,28.4886122 C19.6483354,28.7622681 20.0305168,28.9791159 20.3968248,29.213678 C20.8718042,29.5178758 21.3815829,29.7768716 21.8242051,30.1226064 C22.914582,30.9747267 22.7363121,32.6435387 22.2253124,33.3734913 C21.9688968,33.7393838 21.6166305,33.9770002 21.1953763,34.1022221 C20.3192896,34.3630504 19.4273296,34.4015332 18.5390326,34.1852962 C17.6525671,33.9702809 17.1275256,33.3392843 17.0506009,32.4297451 C17.0267909,32.1505917 17.0469379,31.8683841 17.0469379,31.5647972" id="Fill-9" fill="#FFFFFF"></path>
                    <path d="M28.6093287,27.1075054 L25.7197689,27.1075054 L25.7197689,29.118998 L26.4078175,29.118998 C26.9908578,29.118998 27.5732875,29.1238847 28.1557173,29.1159438 C28.3248295,29.1135005 28.3840493,29.1660326 28.3785547,29.3376784 C28.3675654,29.6925758 28.3748916,30.048084 28.3748916,30.4304692 L25.725874,30.4304692 L25.725874,32.8518348 L28.6746537,32.8518348 L28.6746537,34.1669711 C28.596508,34.1724686 28.5195833,34.1816312 28.4426586,34.1816312 C27.001847,34.1828529 25.5616459,34.1779662 24.1214449,34.1883504 C23.897997,34.1901829 23.8534295,34.1132172 23.85404,33.9085862 C23.8601451,31.2850329 23.8595346,28.6620905 23.8546505,26.0385372 C23.85404,25.8436796 23.9022706,25.7697681 24.1110661,25.7703789 C25.51891,25.7783198 26.9267539,25.777709 28.3352082,25.7697681 C28.5421723,25.7685464 28.6252021,25.8204677 28.6136023,26.0409806 C28.596508,26.3854937 28.6093287,26.7318394 28.6093287,27.1075054" id="Fill-11" fill="#FFFFFF"></path>
                    <path d="M1.64777562,42.3377972 L2.2991934,42.3377972 C2.95915837,42.3365755 3.27418328,42.0916291 3.3938439,41.4484156 C3.57394535,40.4771817 3.51655709,39.4973961 3.46344243,38.5206646 C3.45245319,38.314201 3.39689647,38.1046833 3.32851897,37.9079931 C3.21557399,37.5805834 2.98968404,37.3417454 2.63436525,37.3063167 C2.31506675,37.275164 1.98966312,37.2995975 1.64777562,37.2995975 L1.64777562,42.3377972 Z M0.00610513384,39.8150323 C0.00610513384,38.6739852 0.0109892409,37.532938 0.00244205354,36.3918908 C0.000610513384,36.1848164 0.052504151,36.1096833 0.272288969,36.1127374 C1.12151309,36.1249542 1.97134772,36.1078507 2.82057183,36.1200675 C3.42436957,36.1292301 3.99336805,36.262393 4.43415871,36.7199114 C4.81084547,37.1096266 4.97385254,37.6031845 5.04528261,38.1199542 C5.19974249,39.2377895 5.23454176,40.3611223 5.06298749,41.4801793 C4.86334962,42.7843204 4.01534653,43.5051104 2.6960271,43.5124404 C1.88709687,43.5173272 1.07816664,43.5057212 0.269236402,43.5185488 C0.0463990172,43.5222139 -2.02574502e-14,43.4446373 0.00183154015,43.2387846 C0.0103787275,42.0977374 0.00610513384,40.9566903 0.00610513384,39.8150323 L0.00610513384,39.8150323 Z" id="Fill-13" fill="#FFFFFF"></path>
                    <path d="M5.98809843,45.4492275 L5.98809843,51.3273307 L4.7505878,51.3273307 L4.7505878,47.123537 C4.73044085,47.119872 4.7096834,47.1168178 4.68953646,47.1131528 C4.63397974,47.3220597 4.57720199,47.5303558 4.52347682,47.7398735 C4.23165142,48.8754231 3.93738397,50.0097511 3.65349524,51.1471332 C3.61381187,51.3053405 3.54360284,51.3529859 3.38853244,51.3462667 C3.11380141,51.3352716 2.83784936,51.3340499 2.56311834,51.3468775 C2.40133229,51.3542076 2.34455455,51.2925129 2.30792375,51.1385814 C1.99778295,49.8417704 1.67787393,48.5467918 1.36040697,47.2512024 C1.34392311,47.1833993 1.32377617,47.1155961 1.27310356,47.0520689 L1.27310356,51.34138 C0.878711914,51.34138 0.501414642,51.345045 0.124117371,51.3358824 C0.0850445144,51.3352716 0.0282667697,51.2650251 0.0142249619,51.2167688 C-0.00592197983,51.1489657 0.00567777447,51.072 0.00567777447,50.9993102 C0.00628828786,49.2498674 0.0117829083,47.5004247 0.00140418078,45.7515928 C-0.000427359369,45.4993163 0.0752763003,45.4345674 0.3170396,45.4437299 C0.802397741,45.4620551 1.28897691,45.4651093 1.77372453,45.4425083 C2.02159297,45.4309023 2.1003492,45.5249715 2.15163232,45.7503711 C2.41598462,46.9085217 2.69682077,48.0630073 2.97155179,49.2187146 C2.97704642,49.2419265 2.98681463,49.2633059 3.01795081,49.3530992 C3.10281217,49.0299654 3.17485275,48.7648613 3.24139871,48.4991464 C3.47522534,47.5663953 3.7108835,46.6342551 3.93677345,45.6996715 C3.98195145,45.5139764 4.05704459,45.4376216 4.2627876,45.4437299 C4.82751248,45.4602226 5.39284788,45.4492275 5.98809843,45.4492275" id="Fill-15" fill="#FFFFFF"></path>
                    <path d="M21.9726209,39.2856793 C22.4451583,39.2404772 22.9689787,39.4652659 23.2601936,38.9295602 C23.5001254,38.4885344 23.5398088,37.9900899 23.2540885,37.5692218 C22.9390636,37.1037626 22.4213482,37.3468765 21.9726209,37.2919009 L21.9726209,39.2856793 Z M21.9634632,40.4432191 L21.9634632,43.1693933 C21.9634632,43.5132956 21.9634632,43.5139065 21.6270703,43.5145173 C21.2149738,43.5151281 20.8034878,43.5145173 20.3688022,43.5145173 L20.3688022,36.1178685 L20.6490279,36.1178685 C21.5147359,36.1178685 22.3804438,36.1184793 23.2467623,36.1172577 C24.3108872,36.1154251 24.965968,36.7006088 25.0636502,37.7610253 C25.1094387,38.2594698 25.0709763,38.7505844 24.8035715,39.1934426 C24.5880602,39.5501725 24.2504463,39.7431976 23.8078241,39.8665871 C23.9421371,39.9032374 24.0233354,39.924006 24.1039231,39.9472179 C24.6607113,40.1084793 24.9830624,40.4823128 25.0245773,41.0619989 C25.0697553,41.6991039 25.0880707,42.3380415 25.125312,42.9757573 C25.1350802,43.1437381 25.1723215,43.3104971 25.2016262,43.5114631 C24.7071103,43.5114631 24.2180891,43.5175715 23.7290679,43.5035222 C23.6716796,43.5016897 23.5819342,43.3966254 23.5678924,43.3269897 C23.5178303,43.0747133 23.4775364,42.8175501 23.4634946,42.5609977 C23.4396846,42.1095877 23.4702102,41.6526802 23.4177061,41.2049352 C23.3633704,40.7455844 23.1484697,40.5653869 22.6887531,40.4981946 C22.4598106,40.4652093 22.227205,40.4621551 21.9634632,40.4432191 L21.9634632,40.4432191 Z" id="Fill-17" fill="#FFFFFF"></path>
                    <path d="M15.7408666,40.7010542 L17.1920569,40.7010542 C16.9454095,39.677899 16.7048672,38.6779556 16.4637144,37.6786231 C16.4521147,37.6792339 16.4399044,37.6798448 16.4283047,37.6798448 C16.1999726,38.684064 15.9710301,39.6876724 15.7408666,40.7010542 M19.6518153,43.5133567 C19.0999112,43.5133567 18.5913536,43.5188543 18.0834064,43.5066375 C18.0260182,43.504805 17.9399358,43.4125683 17.9210099,43.3465977 C17.8019598,42.9275622 17.6865727,42.5060833 17.5931642,42.0803285 C17.5571439,41.9147912 17.4857138,41.8732541 17.3318645,41.8750867 C16.7573714,41.881195 16.1834888,41.8830276 15.6089957,41.8744758 C15.4551463,41.8720325 15.394095,41.9325055 15.3605167,42.0705551 C15.2640556,42.4633246 15.1468371,42.8512073 15.0619757,43.2458092 C15.0155767,43.4608246 14.9185051,43.5286277 14.7011623,43.5194651 C14.2750239,43.5023616 13.8470541,43.5145784 13.3787903,43.5145784 C13.4825776,43.1431883 13.5765966,42.8041727 13.6724472,42.4663788 C14.2518244,40.4316742 14.8336437,38.3969697 15.4075263,36.3604326 C15.4606409,36.1722942 15.5448918,36.1069345 15.7445297,36.112432 C16.2939917,36.127703 16.8440643,36.1222055 17.3941368,36.1154862 C17.5455441,36.1136537 17.6206373,36.1527474 17.6645943,36.313398 C18.3031913,38.6254235 18.9497249,40.9356164 19.5938166,43.2470309 C19.6151845,43.322775 19.6273948,43.4009623 19.6518153,43.5133567" id="Fill-19" fill="#FFFFFF"></path>
                    <path d="M35.6027596,36.131368 L35.6027596,37.2864645 L33.0959916,37.2864645 L33.0959916,39.0572866 L35.3982376,39.0572866 L35.3982376,40.2258215 L33.6472852,40.2258215 C33.0758447,40.2258215 33.0758447,40.2258215 33.0758447,40.8036751 C33.0758447,41.225154 33.0850024,41.646022 33.0715711,42.0668901 C33.0648554,42.2727428 33.1167491,42.3484868 33.3395864,42.3436001 C34.0196984,42.3283291 34.6998103,42.3381026 35.3799222,42.3381026 L35.6894525,42.3381026 L35.6894525,43.5023616 C35.5893283,43.5066375 35.4946987,43.5145784 35.4000691,43.5145784 C34.1778213,43.5151892 32.9555735,43.5090808 31.7333257,43.5194651 C31.5074358,43.5212976 31.428069,43.4718197 31.4292901,43.2287058 C31.4384478,40.9447789 31.4353952,38.6608521 31.4341742,36.3763145 C31.4335637,36.2321565 31.4201324,36.1118212 31.6362541,36.1130429 C32.9152796,36.1215946 34.1943052,36.1179296 35.4733307,36.1185404 C35.5117931,36.1185404 35.5502554,36.1258705 35.6027596,36.131368" id="Fill-21" fill="#FFFFFF"></path>
                    <path d="M8.01817753,42.3412789 L10.6421641,42.3412789 C10.6421641,42.7108365 10.6458271,43.0632906 10.6360589,43.414523 C10.6348379,43.4487299 10.549366,43.509203 10.502967,43.509203 C9.14518524,43.5147006 7.78740347,43.5134789 6.4113063,43.5134789 L6.4113063,36.1339336 L10.5524186,36.1339336 C10.5524186,36.4827226 10.5597447,36.8278466 10.5426504,37.1717489 C10.5408188,37.2157293 10.4089479,37.2871975 10.3369074,37.2884192 C9.66534264,37.2975818 8.99377792,37.2939167 8.3222132,37.2939167 L8.03588242,37.2939167 L8.03588242,39.0537437 L10.341181,39.0537437 L10.341181,40.2253328 L9.86559103,40.2253328 C9.32345515,40.2259437 8.78131926,40.2216678 8.23918338,40.2314412 C8.16470074,40.2326629 8.02855626,40.3047419 8.02794574,40.3456681 C8.01390394,40.9992658 8.01817753,41.6522526 8.01817753,42.3412789" id="Fill-23" fill="#FFFFFF"></path>
                    <path d="M30.5615674,51.3441288 C30.0066107,51.3441288 29.4895059,51.3502371 28.9736221,51.3361878 C28.9101287,51.3343553 28.8209937,51.2341777 28.7922996,51.1602662 C28.3283094,49.9697411 27.8728665,48.7761618 27.4149814,47.5831934 C27.3691929,47.4640798 27.3197413,47.3461878 27.2367115,47.231961 L27.2367115,51.3245819 L26.0297265,51.3245819 L26.0297265,45.4519763 C26.5797991,45.4519763 27.1188824,45.4464787 27.6579657,45.4599172 C27.715354,45.4611389 27.7947207,45.5600948 27.8221938,45.6297304 C28.284963,46.7860485 28.7410165,47.94481 29.198291,49.1029607 C29.2275957,49.1768722 29.2587318,49.249562 29.3393196,49.3204193 L29.3393196,49.0027831 C29.3387091,47.9093814 29.3454247,46.8159796 29.3319934,45.7231888 C29.3289409,45.4898483 29.4076971,45.4318186 29.6213768,45.445257 C29.8631401,45.4611389 30.1073454,45.4611389 30.3491087,45.445257 C30.5530202,45.4324294 30.56462,45.5368829 30.5640094,45.6963118 C30.5597359,47.1702662 30.5615674,48.6442206 30.5615674,50.1175641 L30.5615674,51.3441288" id="Fill-25" fill="#FFFFFF"></path>
                    <path d="M22.6583495,47.9741914 C23.0154999,47.9644179 23.3873025,48.0914724 23.6486022,47.74024 C23.844577,47.4763576 23.8653345,46.886898 23.6754648,46.6315674 C23.4111125,46.2754483 23.0246576,46.4104437 22.6583495,46.3884535 L22.6583495,47.9741914 Z M25.1840434,51.3429682 C24.8201774,51.3429682 24.4331119,51.3490765 24.0472675,51.3356381 C23.9965949,51.3338056 23.9141756,51.2385147 23.9062389,51.1792633 C23.8696081,50.8915582 23.8488506,50.6014097 23.8323668,50.311872 C23.8189355,50.0779207 23.8354193,49.8409152 23.8097778,49.6087964 C23.7621577,49.1653273 23.5930455,48.9973466 23.1516443,48.9417603 C22.9947424,48.9222134 22.8329564,48.9387061 22.6436972,48.9387061 L22.6436972,50.1353396 L22.6436972,51.3215888 L21.3310934,51.3215888 L21.3310934,51.0540413 C21.3310934,49.2722241 21.335367,47.4904069 21.3262093,45.7085897 C21.3249883,45.483801 21.4013025,45.4410423 21.6052139,45.4440964 C22.2847153,45.4557024 22.9648273,45.4483723 23.6449392,45.4483723 C24.528352,45.4489832 25.0594987,45.9339893 25.1144449,46.8166516 C25.1297077,47.0554896 25.1071187,47.3034902 25.0570566,47.5380524 C24.9544904,48.0200043 24.6321393,48.3034336 24.1644861,48.4274339 C24.1577704,48.4347639 24.1528863,48.4408723 24.1473917,48.4469807 C24.1852435,48.4591975 24.2224848,48.4732468 24.2609472,48.4842419 C24.8391033,48.6436709 25.0710984,48.9564204 25.0894138,49.5489342 C25.1077292,50.1371721 25.1504652,50.72541 25.1840434,51.3429682 L25.1840434,51.3429682 Z" id="Fill-27" fill="#FFFFFF"></path>
                    <path d="M13.4255556,50.4051471 C13.6074886,50.4051471 13.760117,50.4039254 13.9127453,50.4051471 C14.4652599,50.4106447 14.7222861,50.212122 14.8144736,49.6721404 C14.9530601,48.8621679 14.9426814,48.0460871 14.8474413,47.2330605 C14.8083684,46.8977099 14.7021391,46.5507534 14.3327785,46.4517975 C14.0464477,46.3748318 13.7350859,46.3919352 13.4255556,46.3668908 L13.4255556,50.4051471 Z M12.1361514,51.3183513 L12.1361514,45.494002 C12.1636245,45.475066 12.1764452,45.4579625 12.189266,45.4579625 C12.9499657,45.4567408 13.7131074,45.4207013 14.4707545,45.4659034 C15.4610072,45.5251548 15.949418,45.983284 16.1185302,46.9942224 C16.2748216,47.9239193 16.2961896,48.8652221 16.133793,49.798584 C15.9622387,50.7856998 15.2925056,51.3378982 14.288211,51.3421741 C13.5916153,51.3452283 12.89563,51.3415632 12.1996448,51.3397307 C12.1843819,51.3397307 12.1697296,51.3299573 12.1361514,51.3183513 L12.1361514,51.3183513 Z" id="Fill-29" fill="#FFFFFF"></path>
                    <path d="M25.596201,36.1169522 L25.8770371,36.1169522 C27.4149204,36.1175631 28.9528036,36.1218389 30.4906868,36.1132872 C30.7080296,36.1120655 30.7745755,36.1749819 30.7605337,36.3875539 C30.7422183,36.6538797 30.7495445,36.922038 30.7574811,37.1895854 C30.7623652,37.3398518 30.7019244,37.3862756 30.5572327,37.3838322 C30.1359785,37.377113 29.7147243,37.3948273 29.2946911,37.3758913 C29.0620855,37.365507 28.9918764,37.433921 28.9930975,37.669094 C29.0022552,39.4429703 28.9979816,41.2168466 28.9979816,42.9907229 C28.9973711,43.5148227 28.9979816,43.5148227 28.471719,43.5148227 C28.1884408,43.5148227 27.9045521,43.5007734 27.6218844,43.5190986 C27.4014891,43.5331479 27.3502059,43.4506846 27.351427,43.2417777 C27.3587531,41.492335 27.3557006,39.7428922 27.3557006,37.9934495 C27.3557006,37.3813889 27.3557006,37.3819997 26.7506818,37.3813889 C26.4264992,37.3813889 26.1023166,37.3868864 25.779355,37.3734479 C25.7170826,37.3703938 25.6090218,37.2928172 25.6059692,37.2439501 C25.5888748,36.9617425 25.5968115,36.6777024 25.596201,36.3942731 L25.596201,36.1169522" id="Fill-31" fill="#FFFFFF"></path>
                    <path d="M8.22562998,48.4726359 C8.26592386,48.8990015 8.30072312,49.4383723 8.37398473,49.9722456 C8.41061553,50.2391822 8.56751747,50.4499216 8.86178492,50.509173 C9.29830199,50.5977446 9.64324206,50.3973895 9.69696723,49.9282652 C9.77328141,49.2648941 9.79831246,48.5935821 9.800144,47.9253242 C9.80136502,47.5343873 9.74458728,47.1361203 9.65972592,46.7531243 C9.58035918,46.3951727 9.33737485,46.2589556 8.97228785,46.2809458 C8.60597982,46.3023252 8.38375295,46.5374982 8.32636469,47.0286127 C8.27508156,47.4690276 8.2628713,47.9137183 8.22562998,48.4726359 M6.91241569,48.2875517 C6.94538341,47.8691271 6.94782547,47.3480814 7.03451837,46.841696 C7.19264133,45.9211617 7.66212613,45.4917419 8.59193801,45.392786 C8.94908834,45.3555248 9.32333304,45.3561356 9.67498875,45.4208846 C10.5260444,45.5766485 10.9479092,46.0567679 11.0669593,47.0457162 C11.1811253,47.9937382 11.1939461,48.9509228 11.0394862,49.8989449 C10.8831947,50.8567404 10.4008892,51.3240321 9.43444648,51.4205447 C9.06203331,51.4578059 8.67130475,51.4364265 8.30377569,51.3643475 C7.52353959,51.2122486 7.07908584,50.6435576 6.99422448,49.7425701 C6.95209906,49.2923818 6.94233085,48.8397502 6.91241569,48.2875517" id="Fill-33" fill="#FFFFFF"></path>
                    <g id="Group-37" transform="translate(31.136183, 45.096346)">
                        <mask id="mask-2" fill="white">
                            <use xlink:href="#path-1"></use>
                        </mask>
                        <g id="Clip-36"></g>
                        <path d="M1.66163428,3.2788613 C1.71352792,3.81639957 1.74649564,4.34782945 1.82280981,4.87315095 C1.8588301,5.12359492 1.99741664,5.3428861 2.28435793,5.40763503 C2.72759065,5.50781261 3.05543633,5.32028506 3.14212923,4.85787998 C3.32894633,3.86526669 3.3002522,2.86287998 3.17387593,1.86721249 C3.1177087,1.42435426 2.89792388,1.21850153 2.59388822,1.18734874 C2.18606527,1.14459002 1.90828168,1.30096479 1.83074649,1.72061115 C1.7355064,2.23310502 1.71474894,2.75964819 1.66163428,3.2788613 M0.352083069,3.08156032 C0.393597979,2.69612094 0.420460568,2.1292624 0.523026816,1.57645315 C0.65184514,0.87704256 1.10973018,0.464726271 1.80632595,0.323011635 C2.32953592,0.216114819 2.8533564,0.223444887 3.36496662,0.376765462 C4.01394235,0.570401408 4.36926114,1.04502327 4.4724379,1.69129088 C4.63910805,2.7346038 4.64826575,3.78830098 4.48281663,4.83100306 C4.33507239,5.75947826 3.87718735,6.20172566 2.95103854,6.31350919 C2.54993125,6.3623763 2.1231824,6.33794274 1.72573818,6.25853368 C0.958933372,6.10582394 0.502879875,5.5029259 0.436944429,4.64225383 C0.402145166,4.18351378 0.386271818,3.72294121 0.352083069,3.08156032" id="Fill-35" fill="#FFFFFF" mask="url(#mask-2)"></path>
                    </g>
                    <path d="M20.4971932,45.4613221 L20.4971932,46.3775805 L18.5056985,46.3775805 L18.5056985,47.7880077 L20.0441923,47.7880077 C20.3622697,47.7886185 20.3622697,47.7886185 20.3616592,48.1038114 C20.3610487,48.2974473 20.3616592,48.4904724 20.3616592,48.7128178 C20.2548194,48.719537 20.1620214,48.7305321 20.0692233,48.7305321 C19.6241591,48.7323647 19.1790948,48.7366405 18.7346411,48.7293105 C18.5563712,48.7262563 18.4721203,48.7702367 18.4782254,48.9736461 C18.4928778,49.440327 18.4831096,49.9082296 18.4831096,50.4048417 L20.0356451,50.4048417 C20.5948753,50.4042309 20.5954859,50.4042309 20.5942648,50.9710894 C20.5924333,51.39379 20.6302851,51.3418686 20.212694,51.3430903 C19.3066921,51.3449228 18.4006902,51.3430903 17.4946884,51.3430903 L17.2126312,51.3430903 C17.205305,51.253297 17.1943158,51.1836614 17.1943158,51.1140257 C17.1937053,49.3089966 17.1973684,47.5045784 17.1906527,45.6995493 C17.1894317,45.4943074 17.2517041,45.4423861 17.4507314,45.4448295 C18.3805433,45.4546029 19.3109657,45.4484945 20.2413881,45.4491053 C20.3201443,45.4497162 20.3995111,45.4564354 20.4971932,45.4613221" id="Fill-38" fill="#FFFFFF"></path>
                    <path d="M27.7848915,56.0031196 C27.7519237,56.0196122 27.7384925,56.0312182 27.7238401,56.0330507 C27.2012407,56.0910804 27.2012407,56.0904695 27.2012407,55.5700348 C27.2012407,54.9146046 27.2012407,54.2597852 27.2006302,53.604355 L27.2006302,53.3068765 C27.5040553,53.3068765 27.784281,53.2989355 28.0632856,53.3142065 C28.1090741,53.3166499 28.173178,53.4143841 28.1884408,53.4779114 C28.3105435,53.9671934 28.4222674,54.4595295 28.5907691,54.9536983 C28.7085982,54.4821306 28.8380271,54.0130063 28.9393723,53.5371627 C28.9790557,53.3490243 29.0492647,53.2769453 29.2415764,53.3013789 C29.3844365,53.3190932 29.5334018,53.3166499 29.677483,53.3019897 C29.8777314,53.2818321 29.9259619,53.3728471 29.9241304,53.5548771 C29.9174147,54.2829971 29.9106991,55.011728 29.9265724,55.7392371 C29.9314565,55.9896811 29.8527003,56.0825286 29.6091055,56.0452675 C29.5309598,56.0330507 29.4509825,56.0361049 29.3508583,56.0306073 L29.3508583,54.1608293 C29.3355955,54.1589968 29.3203326,54.1565534 29.3056803,54.1547209 C29.1744199,54.6806532 29.0419385,55.2059747 28.9125097,55.7319071 C28.8429112,56.0141147 28.5907691,56.1527751 28.3282484,56.0312182 C28.2720812,56.0055629 28.2348398,55.9078287 28.2171349,55.8363605 C28.081601,55.2908814 27.9533932,54.7435697 27.7848915,54.2011447 L27.7848915,56.0031196 Z" id="Fill-40" fill="#FFFFFF"></path>
                    <g id="Group-44" transform="translate(0.000000, 53.037252)" fill="#FFFFFF">
                        <path d="M2.13942205,2.98828521 L2.13942205,1.16798515 C2.12721178,1.16493096 2.114391,1.1624876 2.10218074,1.1594334 C2.07104455,1.27182777 2.0368558,1.3836113 2.00877219,1.49722734 C1.90376389,1.92053873 1.78044018,2.34079593 1.70473652,2.76960487 C1.65833751,3.0304331 1.50082505,3.00050199 1.32194463,3.01027541 C1.14123267,3.019438 1.04782412,2.97423592 1.00630921,2.77571326 C0.893364235,2.23267743 0.754167183,1.69575 0.59116011,1.16004424 L0.59116011,2.96324081 C0.553918793,2.97912263 0.532550825,2.99622612 0.510572343,2.9974478 C-0.108488228,3.02432471 0.0111723949,3.03654149 0.00628828786,2.53565355 C0.0007936674,1.85517897 0.0136144485,1.17531522 0.00506726109,0.49545147 C0.00323572094,0.30975643 0.0667291129,0.252337569 0.243167481,0.263943509 C0.469057433,0.279214483 0.75538821,0.196140386 0.904353476,0.306091396 C1.04660309,0.411155695 1.05026617,0.708634262 1.10704392,0.923649571 C1.15283242,1.09529532 1.18702117,1.26999525 1.22670454,1.44286268 C1.26455637,1.60656751 1.30362923,1.76966151 1.38543802,1.93825306 C1.48678324,1.53937523 1.59118103,1.1404974 1.68825266,0.740397887 C1.80363969,0.267608543 1.80119764,0.264554348 2.28228218,0.268219382 C2.74993544,0.271884415 2.71940977,0.193086191 2.71879925,0.712910135 C2.71879925,1.36101026 2.71940977,2.00849954 2.71879925,2.65598882 C2.71879925,3.01394045 2.71879925,3.01394045 2.35676482,3.0053887 C2.29327142,3.00416702 2.23038855,2.99561528 2.13942205,2.98828521" id="Fill-42"></path>
                    </g>
                    <path d="M15.0145999,54.9565692 L15.0145999,53.3195208 L15.5481886,53.3195208 L15.5481886,56.0414192 C15.3338984,56.0414192 15.1244923,56.0566901 14.9193598,56.0334783 C14.8497612,56.0255374 14.7618473,55.9333007 14.7325427,55.86 C14.5561043,55.4171418 14.3949288,54.9681751 14.2282586,54.521041 C14.1983435,54.4404103 14.1647652,54.3610012 14.0939457,54.2870897 C14.0939457,54.7757609 14.0811249,55.264432 14.1000508,55.7524923 C14.1092085,55.9925521 14.0286207,56.0530251 13.7996782,56.0511926 C13.5811144,56.0499709 13.5029687,55.9931629 13.5066318,55.7647091 C13.5194526,55.0280374 13.5145685,54.2913656 13.5078528,53.5546938 C13.5060213,53.372053 13.5560834,53.2981415 13.7551108,53.299974 C14.3173936,53.3042498 14.3167831,53.2956981 14.5170315,53.8161329 C14.6641652,54.1991289 14.8119094,54.5821249 14.9596537,54.9645101 C14.9779691,54.9620667 14.9962845,54.9590126 15.0145999,54.9565692" id="Fill-45" fill="#FFFFFF"></path>
                    <path d="M30.917863,54.3951471 C31.1895415,54.3829303 31.4355784,54.4873838 31.5357026,54.2247231 C31.5759964,54.1208804 31.5448603,53.9113627 31.4697671,53.8594414 C31.3543801,53.7800323 31.1736681,53.7946924 31.0204293,53.769648 C30.9886826,53.9651165 30.9563253,54.1599741 30.917863,54.3951471 M30.9502202,54.8716015 L30.9502202,55.2515433 C30.9496097,55.5954457 31.030808,55.6565295 31.3665903,55.5710121 C31.5625651,55.5215341 31.6150693,55.3706569 31.6107957,55.2014545 C31.6065221,55.0389714 31.5411972,54.8948134 31.351938,54.8740449 C31.2334984,54.8606064 31.1126168,54.8716015 30.9502202,54.8716015 M30.3384858,53.3231248 C30.7896552,53.3231248 31.2090779,53.3060213 31.6260585,53.3286223 C31.9209365,53.345115 32.0949328,53.5130957 32.1462159,53.7891949 C32.2066568,54.1184371 32.1706365,54.4232457 31.8293595,54.6052757 C32.1529316,54.8117393 32.2848025,55.1360948 32.1993306,55.4995439 C32.1236269,55.8232886 31.9307047,55.9973777 31.5344815,56.0291413 C31.1809943,56.0572399 30.8238439,56.045634 30.4685252,56.0358605 C30.4239577,56.0346389 30.3445909,55.939348 30.3439804,55.8868158 C30.3360438,55.0383605 30.3384858,54.1899052 30.3384858,53.3231248" id="Fill-47" fill="#FFFFFF"></path>
                    <path d="M5.62716291,55.5547027 C6.0325438,55.6359443 6.18944574,55.549816 6.23035014,55.1717067 C6.2651494,54.8436862 6.27308607,54.5071139 6.24194989,54.1797042 C6.20470857,53.7930432 6.02460713,53.6983631 5.62716291,53.7997624 L5.62716291,55.5547027 Z M5.6814986,53.3074262 C5.76208637,53.3074262 5.84267414,53.3062045 5.9232619,53.3074262 C6.52950169,53.3141454 6.78286475,53.5047272 6.83903198,54.0996843 C6.87871535,54.521774 6.86528406,54.9560805 6.81216939,55.3769486 C6.75966524,55.7917082 6.47882908,56.0103885 6.06306947,56.0348221 C5.77368613,56.0519256 5.48186073,56.039098 5.19186687,56.0452064 C5.05694341,56.0476497 5.00749183,55.9914525 5.00810234,55.857068 C5.01176542,55.0654207 5.01298645,54.2737734 5.00810234,53.4821261 C5.00688131,53.338579 5.06915368,53.3000961 5.19675098,53.304372 C5.35792651,53.3092587 5.51971256,53.3055937 5.6814986,53.3055937 L5.6814986,53.3074262 Z" id="Fill-49" fill="#FFFFFF"></path>
                    <g id="Group-53" transform="translate(24.420535, 53.037252)">
                        <mask id="mask-4" fill="white">
                            <use xlink:href="#path-3"></use>
                        </mask>
                        <g id="Clip-52"></g>
                        <path d="M1.77683815,1.62379317 C1.76645943,1.40755618 1.77195405,1.18765416 1.73959684,0.973249694 C1.71761835,0.822372474 1.6510724,0.676992805 1.44899247,0.676381966 C1.23958638,0.675160288 1.15106193,0.808323178 1.14556731,0.980579761 C1.13091499,1.40572367 1.13274653,1.83270009 1.14190423,2.25845484 C1.14556731,2.4429282 1.23226021,2.60052465 1.44166631,2.60052465 C1.63580956,2.60052465 1.72189195,2.44903659 1.74142838,2.27800168 C1.76584891,2.0617647 1.76584891,1.84308435 1.77683815,1.62379317 M0.471560538,1.64578337 C0.495981073,1.37884675 0.50086518,1.11068846 0.548485224,0.849860227 C0.618694263,0.45953414 0.875720398,0.254292254 1.27499615,0.231080374 C1.37939394,0.224971984 1.48501276,0.224971984 1.59002106,0.231691212 C2.02470659,0.260400643 2.31042685,0.482135181 2.34278406,0.908500765 C2.38002538,1.39656108 2.3812464,1.89378399 2.33728944,2.38123347 C2.29638504,2.82531338 1.95327652,3.05132379 1.44655041,3.05437799 C0.930666603,3.05743218 0.622967857,2.84119519 0.544822144,2.39345024 C0.502086207,2.14789299 0.494760047,1.89622734 0.471560538,1.64578337" id="Fill-51" fill="#FFFFFF" mask="url(#mask-4)"></path>
                    </g>
                    <path d="M22.2718335,54.6744838 C22.2468025,54.4374783 22.2413078,54.1760392 22.180867,53.9280386 C22.1588885,53.8388561 22.0019866,53.7240184 21.9104096,53.7270726 C21.817001,53.7301268 21.6527729,53.8590138 21.6484993,53.9396445 C21.6228578,54.4203748 21.6198052,54.9041592 21.6460573,55.3848895 C21.6509414,55.4759045 21.8176116,55.6243383 21.9128516,55.6261709 C22.0062602,55.6286142 22.158278,55.493008 22.1863616,55.3909979 C22.247413,55.1686525 22.2455814,54.9298145 22.2718335,54.6744838 M22.8878415,54.7257942 C22.8652525,54.9456963 22.8567053,55.1979727 22.8096958,55.4429192 C22.7376552,55.8185851 22.5361858,55.9969501 22.1619411,56.0629207 C21.4122307,56.1942511 20.9867028,55.8509596 20.9824292,55.0916868 C20.9799872,54.6897547 20.972661,54.2811035 21.0349334,53.8865015 C21.1106371,53.4033279 21.4360407,53.2292388 22.045333,53.2658892 C22.5111548,53.2939878 22.7828332,53.539545 22.8347269,53.99462 C22.8609789,54.2273497 22.8689156,54.4619118 22.8878415,54.7257942" id="Fill-54" fill="#FFFFFF"></path>
                    <path d="M34.7962714,54.9649988 C34.7193467,54.6333132 34.6479166,54.3272829 34.5764866,54.0206418 C34.5612237,54.0218634 34.5459609,54.0230851 34.5306981,54.0243068 C34.4653731,54.3321696 34.4006587,54.6406433 34.3322812,54.9649988 L34.7962714,54.9649988 Z M33.4561945,56.0083117 C33.5789077,55.5544584 33.6961263,55.1201519 33.8151764,54.6858454 C33.9244583,54.2894109 34.0398453,53.8935873 34.1448536,53.4959311 C34.1808739,53.3591032 34.2413147,53.302906 34.3933325,53.3016843 C34.9751518,53.2955759 34.9745413,53.2894675 35.1308327,53.8618236 C35.302387,54.4922094 35.4739412,55.1232061 35.644885,55.7542027 C35.667474,55.8372768 35.6833473,55.9221834 35.7102099,56.0406862 C35.5154561,56.0406862 35.3426809,56.0669522 35.1851684,56.0284694 C35.1131278,56.0107551 35.0655078,55.8690404 35.0197193,55.7768037 C34.9678256,55.6729611 34.9458472,55.479936 34.8841853,55.4683301 C34.6741687,55.4286255 34.4525523,55.445729 34.2364306,55.4591675 C34.2059049,55.461 34.1729372,55.5611776 34.1564534,55.6198181 C34.0221404,56.0932183 33.9922253,56.1115435 33.4561945,56.0083117 L33.4561945,56.0083117 Z" id="Fill-56" fill="#FFFFFF"></path>
                    <path d="M20.0788694,54.1974796 C20.0556699,54.0728685 20.058112,53.9763559 20.0190391,53.9024444 C19.9787452,53.8273112 19.9018206,53.7301878 19.8334431,53.7240795 C19.7595709,53.7173602 19.6423524,53.7857742 19.6057216,53.854799 C19.5471123,53.9635283 19.5171971,54.0997454 19.5153656,54.2249674 C19.5104815,54.5798648 19.5190287,54.9347622 19.5379546,55.2890488 C19.5477228,55.4698572 19.624037,55.6384487 19.8377166,55.6317295 C20.0434597,55.6256211 20.056891,55.4484778 20.0623856,55.2914922 C20.0745958,54.9445357 20.3365061,55.1088513 20.4964606,55.083807 C20.6863303,55.0544867 20.6680149,55.1980338 20.6606887,55.3238667 C20.6307735,55.8094836 20.4213674,56.0483216 19.923799,56.0800853 C19.3847157,56.1149031 19.0202392,55.9469224 18.9726192,55.5071183 C18.9121784,54.9518657 18.9091258,54.3795096 18.9744507,53.8254787 C19.0269549,53.3850638 19.4036416,53.2219698 19.9817978,53.2677828 C20.379242,53.2995464 20.5782694,53.5066208 20.6435943,53.9403164 C20.6704569,54.1199031 20.6393207,54.2237457 20.4262516,54.199923 C20.3163591,54.1870954 20.2028037,54.1974796 20.0788694,54.1974796" id="Fill-58" fill="#FFFFFF"></path>
                    <path d="M7.91371869,53.7600579 L7.91371869,54.3904437 L8.7214279,54.3904437 C8.72936457,54.4777936 8.73302765,54.5486509 8.74279587,54.6182866 C8.76843743,54.7905432 8.6939548,54.8497945 8.5254531,54.8400211 C8.32520471,54.829026 8.12434581,54.8375778 7.89540329,54.8375778 C7.89540329,55.056869 7.88319302,55.2498941 7.90395048,55.439865 C7.9094451,55.4942296 8.00895878,55.5748604 8.07123114,55.5809688 C8.27147953,55.5992939 8.475391,55.5944072 8.67686042,55.587688 C8.85696187,55.5815796 8.83864647,55.7019149 8.83925698,55.8155309 C8.83986749,55.9315903 8.85329879,56.0482606 8.67624991,56.0458172 C8.27147953,56.0409305 7.86731967,56.0409305 7.4625493,56.0452064 C7.32213122,56.0470389 7.28244785,55.9853442 7.28305836,55.8546246 C7.28672145,55.0611448 7.28244785,54.267665 7.29038453,53.4741852 C7.29099504,53.4179881 7.36486716,53.3153671 7.40638207,53.3141454 C7.86487762,53.3025395 8.32337317,53.3068154 8.78492129,53.3068154 C8.79224745,53.3788944 8.7946895,53.4192097 8.80079464,53.4583034 C8.83376236,53.6812596 8.75622716,53.7857131 8.51446386,53.7637229 C8.32276266,53.7460086 8.1286194,53.7600579 7.91371869,53.7600579" id="Fill-60" fill="#FFFFFF"></path>
                    <path d="M3.76234978,54.3862289 L4.55845923,54.3862289 L4.55845923,54.8321413 L3.749529,54.8321413 C3.749529,55.0587626 3.73670822,55.2517877 3.75746567,55.4417586 C3.76296029,55.4949016 3.86247398,55.5755323 3.9229148,55.5798082 C4.16284656,55.59569 4.40460986,55.5865274 4.65980446,55.5865274 L4.65980446,56.0269423 L3.15855204,56.0269423 L3.15855204,53.3074873 C3.6170476,53.3074873 4.06821699,53.3013789 4.51877586,53.3166499 C4.5615118,53.3184824 4.63416289,53.4534778 4.6298893,53.5231134 C4.62561571,53.6031333 4.56578539,53.7271336 4.50351303,53.7466805 C4.38507343,53.7833308 4.24770792,53.7588973 4.11827908,53.7595081 C3.68176201,53.7619515 3.75441311,53.7326312 3.749529,54.1412825 C3.74891849,54.2127506 3.75685516,54.2842188 3.76234978,54.3862289" id="Fill-62" fill="#FFFFFF"></path>
                    <path d="M23.3120873,53.3210479 L23.8755911,53.3210479 L23.8755911,55.5445017 L24.6692585,55.5445017 C24.6997842,55.5823737 24.7168786,55.5939796 24.7187101,55.6074181 C24.7754878,56.0417246 24.7730458,56.0441679 24.3481285,56.0441679 C24.0575241,56.0435571 23.7663092,56.0429463 23.4757049,56.0441679 C23.3590968,56.0447788 23.2724039,56.0282861 23.2736249,55.8761872 C23.278509,55.0436137 23.278509,54.2116511 23.2809511,53.3796885 C23.2809511,53.3656392 23.2949929,53.3522007 23.3120873,53.3210479" id="Fill-64" fill="#FFFFFF"></path>
                    <path d="M10.5666436,55.5496327 C10.58618,55.5966673 10.5916746,55.6039974 10.5922851,55.6113275 C10.6301369,56.0431906 10.6301369,56.0431906 10.2101037,56.0438014 C9.91888885,56.0438014 9.62706345,56.0511315 9.33706959,56.0364714 C9.27662877,56.034028 9.17100995,55.9497322 9.17039944,55.901476 C9.16002071,55.0456906 9.16307328,54.1899052 9.16307328,53.3170164 L9.76503948,53.3170164 L9.76503948,55.5496327 L10.5666436,55.5496327 Z" id="Fill-66" fill="#FFFFFF"></path>
                    <path d="M10.8367347,56.0441679 L10.8367347,53.3082203 C10.9991312,53.3082203 11.1584752,53.2935602 11.3117141,53.3173829 C11.3575026,53.324713 11.4173329,53.4413832 11.4179434,53.5085755 C11.4264906,54.0980351 11.423438,54.6887163 11.423438,55.2787867 L11.423438,55.5457234 L12.2103898,55.5457234 C12.2378629,55.5860387 12.2531257,55.5982555 12.2537362,55.611694 C12.2830409,56.1480106 12.3025773,56.0350054 11.8587341,56.0429463 C11.5284463,56.0490547 11.1981586,56.0441679 10.8367347,56.0441679" id="Fill-68" fill="#FFFFFF"></path>
                    <path d="M32.6343214,56.040564 L32.6343214,53.3070597 C32.7893918,53.3070597 32.9481253,53.2966754 33.1031957,53.3137789 C33.1477631,53.3186656 33.2173617,53.4047939 33.2173617,53.4536611 C33.2252983,54.2697419 33.2265194,55.0858227 33.2179722,55.9019036 C33.2173617,55.9483273 33.1263952,56.0259039 33.0690069,56.0344556 C32.935915,56.0540024 32.797939,56.040564 32.6343214,56.040564" id="Fill-70" fill="#FFFFFF"></path>
                    <mask id="mask-6" fill="white">
                        <use xlink:href="#path-5"></use>
                    </mask>
                    <g id="Clip-73"></g>
                    <polygon id="Fill-72" fill="#FFFFFF" mask="url(#mask-6)" points="12.5002615 56.0297521 13.0637654 56.0297521 13.0637654 53.3274006 12.5002615 53.3274006"></polygon>
                    <path d="M16.8025494,55.2264989 C16.7262352,54.8019659 16.7366139,54.7891382 17.1181848,54.7873057 C17.2390664,54.7866949 17.3605586,54.7946358 17.4808297,54.786084 C17.6456683,54.7744781 17.7317507,54.8147935 17.7329718,55.0090403 C17.7341928,55.203287 17.652384,55.2381049 17.4851033,55.2295531 C17.2610449,55.2179472 17.0357655,55.2264989 16.8025494,55.2264989" id="Fill-74" fill="#FFFFFF" mask="url(#mask-6)"></path>
                    <path d="M13.3309261,52.5428391 C13.0183432,52.710209 12.8937985,53.0919833 12.4804809,53.0577763 C12.6154044,52.5440608 12.8156528,52.4145629 13.3309261,52.5428391" id="Fill-75" fill="#FFFFFF" mask="url(#mask-6)"></path>
                </g>
            </g>
        </g>
    </g>
</svg>