<?xml version="1.0" encoding="UTF-8" standalone="no"?>
<svg width="1440px" height="174px" viewBox="0 0 1440 174" version="1.1" xmlns="http://www.w3.org/2000/svg" xmlns:xlink="http://www.w3.org/1999/xlink">
    <!-- Generator: sketchtool 41.2 (35397) - http://www.bohemiancoding.com/sketch -->
    <title>B3F13526-9A4A-4237-B2B1-510A64EE6871</title>
    <desc>Created with sketchtool.</desc>
    <defs>
        <polygon id="path-1" points="2560.376 60.5512 2560.376 0.691390698 0 0.691390698 1.35525272e-20 60.5512"></polygon>
        <polygon id="path-3" points="0 140.309 2560.376 140.309 2560.376 1 0 1"></polygon>
    </defs>
    <g id="desktop-/-home" stroke="none" stroke-width="1" fill="none" fill-rule="evenodd">
        <g id="1-Desktop-Home" transform="translate(0.000000, -5089.000000)">
            <g id="newsletter-y-redes" transform="translate(-881.000000, 5075.000000)">
                <g id="Group-29" transform="translate(0.000000, 14.000000)">
                    <g id="Page-1" transform="translate(0.000000, 10.000000)">
                        <g id="Group-3" transform="translate(0.000000, 0.309000)">
                            <mask id="mask-2" fill="white">
                                <use xlink:href="#path-1"></use>
                            </mask>
                            <g id="Clip-2"></g>
                            <path d="M1595.65,60.5512 C1392.804,60.5512 1172.493,56.7042 938.21,49.0552 C418.32,32.0802 4.511,1.8392 0.392,1.5352 C0.159,1.5192 -0.016,1.3162 0.001,1.0842 C0.019,0.8512 0.217,0.6662 0.453,0.6942 C4.572,0.9972 418.368,31.2382 938.241,48.2112 C1243.572,58.1802 1525.203,61.6922 1775.314,58.6432 C2087.944,54.8352 2351.918,40.7122 2559.906,16.6692 C2560.135,16.6422 2560.347,16.8082 2560.374,17.0392 C2560.401,17.2712 2560.235,17.4812 2560.003,17.5082 C2351.987,41.5552 2087.982,55.6792 1775.322,59.4882 C1717.112,60.1972 1657.175,60.5512 1595.65,60.5512" id="Fill-1" fill="#4B262F" mask="url(#mask-2)"></path>
                        </g>
                        <path d="M902.361,64.2763 L907.482,74.9883 L908.261,74.6163 L903.138,63.9043 L902.361,64.2763 Z M907.284,75.9733 C907.236,75.9733 907.189,75.9653 907.143,75.9503 C907.038,75.9133 906.951,75.8353 906.903,75.7333 L901.417,64.2583 C901.368,64.1583 901.362,64.0423 901.399,63.9363 C901.437,63.8313 901.514,63.7443 901.616,63.6963 L903.156,62.9603 C903.364,62.8603 903.618,62.9473 903.718,63.1583 L909.205,74.6313 C909.305,74.8423 909.216,75.0943 909.007,75.1953 L907.466,75.9323 C907.409,75.9603 907.346,75.9733 907.284,75.9733 L907.284,75.9733 Z" id="Fill-4" fill="#4B262F"></path>
                        <mask id="mask-4" fill="white">
                            <use xlink:href="#path-3"></use>
                        </mask>
                        <g id="Clip-7"></g>
                        <path d="M901.163,74.449 L902.998,74.449 L902.998,44.928 L901.163,44.928 L901.163,74.449 Z M903.42,75.293 L900.741,75.293 C900.507,75.293 900.319,75.104 900.319,74.871 L900.319,44.506 C900.319,44.272 900.507,44.084 900.741,44.084 L903.42,44.084 C903.653,44.084 903.841,44.272 903.841,44.506 L903.841,74.871 C903.841,75.104 903.653,75.293 903.42,75.293 L903.42,75.293 Z" id="Fill-6" fill="#4B262F" mask="url(#mask-4)"></path>
                        <path d="M898.359,127.0829 L924.817,127.0829 L935.298,105.0589 L922.957,73.6919 L900.219,73.6919 L887.878,105.0589 L898.359,127.0829 Z M925.084,127.9269 L898.092,127.9269 C897.929,127.9269 897.781,127.8329 897.712,127.6869 L887.037,105.2559 C886.986,105.1499 886.982,105.0279 887.025,104.9199 L899.54,73.1159 C899.603,72.9539 899.758,72.8489 899.932,72.8489 L923.244,72.8489 C923.418,72.8489 923.573,72.9539 923.636,73.1159 L936.151,104.9199 C936.194,105.0279 936.19,105.1499 936.139,105.2559 L925.464,127.6869 C925.395,127.8329 925.247,127.9269 925.084,127.9269 L925.084,127.9269 Z" id="Fill-8" fill="#4B262F" mask="url(#mask-4)"></path>
                        <path d="M893.9752,107.4481 L929.2002,107.4481 L930.7552,104.1771 L920.7662,78.7891 L902.4102,78.7891 L892.4192,104.1771 L893.9752,107.4481 Z M929.4662,108.2921 L893.7082,108.2921 C893.5452,108.2921 893.3972,108.1981 893.3282,108.0521 L891.5792,104.3751 C891.5282,104.2691 891.5242,104.1471 891.5672,104.0391 L901.7302,78.2131 C901.7932,78.0511 901.9492,77.9451 902.1222,77.9451 L921.0532,77.9451 C921.2272,77.9451 921.3822,78.0511 921.4462,78.2131 L931.6082,104.0391 C931.6512,104.1471 931.6472,104.2691 931.5962,104.3751 L929.8472,108.0521 C929.7782,108.1981 929.6292,108.2921 929.4662,108.2921 L929.4662,108.2921 Z" id="Fill-9" fill="#4B262F" mask="url(#mask-4)"></path>
                        <path d="M894.7545,109.0849 L928.4195,109.0849 L928.7975,108.2919 L894.3775,108.2919 L894.7545,109.0849 Z M928.6865,109.9289 L894.4875,109.9289 C894.3245,109.9289 894.1765,109.8349 894.1075,109.6889 L893.3275,108.0519 C893.2655,107.9209 893.2745,107.7679 893.3515,107.6449 C893.4295,107.5229 893.5645,107.4479 893.7085,107.4479 L929.4665,107.4479 C929.6105,107.4479 929.7455,107.5229 929.8235,107.6449 C929.9005,107.7679 929.9095,107.9209 929.8475,108.0519 L929.0675,109.6889 C928.9975,109.8359 928.8495,109.9289 928.6865,109.9289 L928.6865,109.9289 Z" id="Fill-10" fill="#4B262F" mask="url(#mask-4)"></path>
                        <path d="M895.6989,111.0683 L927.4769,111.0683 L928.0179,109.9283 L895.1569,109.9283 L895.6989,111.0683 Z M927.7439,111.9123 L895.4319,111.9123 C895.2689,111.9123 895.1209,111.8183 895.0519,111.6723 L894.1069,109.6883 C894.0449,109.5573 894.0529,109.4043 894.1309,109.2813 C894.2089,109.1593 894.3439,109.0853 894.4879,109.0853 L928.6859,109.0853 C928.8309,109.0853 928.9659,109.1593 929.0429,109.2813 C929.1209,109.4033 929.1299,109.5573 929.0669,109.6883 L928.1259,111.6723 C928.0549,111.8183 927.9069,111.9123 927.7439,111.9123 L927.7439,111.9123 Z" id="Fill-11" fill="#4B262F" mask="url(#mask-4)"></path>
                        <path d="M894.241,48.884 L909.92,48.884 L909.92,47.942 L894.241,47.942 L894.241,48.884 Z M910.341,49.727 L893.819,49.727 C893.586,49.727 893.397,49.539 893.397,49.306 L893.397,47.519 C893.397,47.286 893.586,47.098 893.819,47.098 L910.341,47.098 C910.575,47.098 910.763,47.286 910.763,47.519 L910.763,49.306 C910.763,49.539 910.575,49.727 910.341,49.727 L910.341,49.727 Z" id="Fill-12" fill="#4B262F" mask="url(#mask-4)"></path>
                        <path d="M1734.361,76.6586 L1739.482,87.3706 L1740.261,86.9986 L1735.138,76.2866 L1734.361,76.6586 Z M1739.284,88.3556 C1739.236,88.3556 1739.189,88.3476 1739.143,88.3326 C1739.038,88.2956 1738.951,88.2176 1738.903,88.1156 L1733.417,76.6406 C1733.368,76.5406 1733.362,76.4246 1733.399,76.3186 C1733.437,76.2136 1733.514,76.1266 1733.616,76.0786 L1735.156,75.3426 C1735.364,75.2426 1735.618,75.3296 1735.718,75.5406 L1741.205,87.0136 C1741.305,87.2246 1741.216,87.4766 1741.007,87.5776 L1739.466,88.3146 C1739.409,88.3426 1739.346,88.3556 1739.284,88.3556 L1739.284,88.3556 Z" id="Fill-13" fill="#4B262F" mask="url(#mask-4)"></path>
                        <path d="M1733.163,86.831 L1734.998,86.831 L1734.998,57.31 L1733.163,57.31 L1733.163,86.831 Z M1735.42,87.675 L1732.741,87.675 C1732.507,87.675 1732.319,87.487 1732.319,87.253 L1732.319,56.888 C1732.319,56.655 1732.507,56.466 1732.741,56.466 L1735.42,56.466 C1735.653,56.466 1735.841,56.655 1735.841,56.888 L1735.841,87.253 C1735.841,87.487 1735.653,87.675 1735.42,87.675 L1735.42,87.675 Z" id="Fill-14" fill="#4B262F" mask="url(#mask-4)"></path>
                        <path d="M1730.359,139.4652 L1756.817,139.4652 L1767.298,117.4412 L1754.957,86.0742 L1732.219,86.0742 L1719.878,117.4412 L1730.359,139.4652 Z M1757.084,140.3092 L1730.092,140.3092 C1729.929,140.3092 1729.781,140.2152 1729.712,140.0692 L1719.037,117.6382 C1718.986,117.5322 1718.982,117.4102 1719.025,117.3022 L1731.54,85.4982 C1731.603,85.3362 1731.758,85.2312 1731.932,85.2312 L1755.244,85.2312 C1755.418,85.2312 1755.573,85.3362 1755.636,85.4982 L1768.151,117.3022 C1768.194,117.4102 1768.19,117.5322 1768.139,117.6382 L1757.464,140.0692 C1757.395,140.2152 1757.247,140.3092 1757.084,140.3092 L1757.084,140.3092 Z" id="Fill-15" fill="#4B262F" mask="url(#mask-4)"></path>
                        <path d="M1725.9752,119.8305 L1761.2002,119.8305 L1762.7552,116.5595 L1752.7662,91.1715 L1734.4102,91.1715 L1724.4192,116.5595 L1725.9752,119.8305 Z M1761.4662,120.6745 L1725.7082,120.6745 C1725.5452,120.6745 1725.3972,120.5805 1725.3282,120.4345 L1723.5792,116.7575 C1723.5282,116.6515 1723.5242,116.5295 1723.5672,116.4215 L1733.7302,90.5955 C1733.7932,90.4335 1733.9492,90.3275 1734.1222,90.3275 L1753.0532,90.3275 C1753.2272,90.3275 1753.3822,90.4335 1753.4462,90.5955 L1763.6082,116.4215 C1763.6512,116.5295 1763.6472,116.6515 1763.5962,116.7575 L1761.8472,120.4345 C1761.7782,120.5805 1761.6292,120.6745 1761.4662,120.6745 L1761.4662,120.6745 Z" id="Fill-16" fill="#4B262F" mask="url(#mask-4)"></path>
                        <path d="M1726.7545,121.4672 L1760.4195,121.4672 L1760.7975,120.6742 L1726.3775,120.6742 L1726.7545,121.4672 Z M1760.6865,122.3112 L1726.4875,122.3112 C1726.3245,122.3112 1726.1765,122.2172 1726.1075,122.0712 L1725.3275,120.4342 C1725.2655,120.3032 1725.2745,120.1502 1725.3515,120.0272 C1725.4295,119.9052 1725.5645,119.8302 1725.7085,119.8302 L1761.4665,119.8302 C1761.6105,119.8302 1761.7455,119.9052 1761.8235,120.0272 C1761.9005,120.1502 1761.9095,120.3032 1761.8475,120.4342 L1761.0675,122.0712 C1760.9975,122.2182 1760.8495,122.3112 1760.6865,122.3112 L1760.6865,122.3112 Z" id="Fill-17" fill="#4B262F" mask="url(#mask-4)"></path>
                        <path d="M1727.6989,123.4506 L1759.4769,123.4506 L1760.0179,122.3106 L1727.1569,122.3106 L1727.6989,123.4506 Z M1759.7439,124.2946 L1727.4319,124.2946 C1727.2689,124.2946 1727.1209,124.2006 1727.0519,124.0546 L1726.1069,122.0706 C1726.0449,121.9396 1726.0529,121.7866 1726.1309,121.6636 C1726.2089,121.5416 1726.3439,121.4676 1726.4879,121.4676 L1760.6859,121.4676 C1760.8309,121.4676 1760.9659,121.5416 1761.0429,121.6636 C1761.1209,121.7856 1761.1299,121.9396 1761.0669,122.0706 L1760.1259,124.0546 C1760.0549,124.2006 1759.9069,124.2946 1759.7439,124.2946 L1759.7439,124.2946 Z" id="Fill-18" fill="#4B262F" mask="url(#mask-4)"></path>
                        <path d="M1726.241,61.266 L1741.92,61.266 L1741.92,60.324 L1726.241,60.324 L1726.241,61.266 Z M1742.341,62.11 L1725.819,62.11 C1725.586,62.11 1725.397,61.921 1725.397,61.688 L1725.397,59.902 C1725.397,59.668 1725.586,59.48 1725.819,59.48 L1742.341,59.48 C1742.575,59.48 1742.763,59.668 1742.763,59.902 L1742.763,61.688 C1742.763,61.921 1742.575,62.11 1742.341,62.11 L1742.341,62.11 Z" id="Fill-19" fill="#4B262F" mask="url(#mask-4)"></path>
                        <path d="M2277.52,57.0539 L2283.461,67.3339 L2284.209,66.9019 L2278.266,56.6219 L2277.52,57.0539 Z M2283.34,68.3319 C2283.292,68.3349 2283.245,68.3309 2283.198,68.3189 C2283.09,68.2909 2282.997,68.2189 2282.942,68.1219 L2276.577,57.1099 C2276.521,57.0139 2276.506,56.8979 2276.534,56.7899 C2276.564,56.6819 2276.634,56.5889 2276.732,56.5339 L2278.21,55.6799 C2278.409,55.5639 2278.669,55.6309 2278.786,55.8329 L2285.151,66.8439 C2285.267,67.0469 2285.198,67.3049 2284.997,67.4209 L2283.519,68.2769 C2283.464,68.3079 2283.403,68.3269 2283.34,68.3319 L2283.34,68.3319 Z" id="Fill-20" fill="#4B262F" mask="url(#mask-4)"></path>
                        <path d="M2277.1189,67.2892 L2278.9479,67.1462 L2276.6459,37.7142 L2274.8169,37.8572 L2277.1189,67.2892 Z M2279.4349,67.9542 L2276.7639,68.1632 C2276.5309,68.1812 2276.3289,68.0082 2276.3109,67.7752 L2273.9419,37.5032 C2273.9239,37.2702 2274.0969,37.0672 2274.3299,37.0492 L2277.0009,36.8402 C2277.2329,36.8222 2277.4359,36.9952 2277.4539,37.2282 L2279.8219,67.5012 C2279.8409,67.7332 2279.6669,67.9362 2279.4349,67.9542 L2279.4349,67.9542 Z" id="Fill-21" fill="#4B262F" mask="url(#mask-4)"></path>
                        <path d="M2278.4287,119.9813 L2304.8057,117.9173 L2313.5377,95.1433 L2298.7877,64.8353 L2276.1197,66.6083 L2266.2617,98.8413 L2278.4287,119.9813 Z M2305.1377,118.7383 L2278.2287,120.8433 C2278.0657,120.8563 2277.9107,120.7743 2277.8307,120.6333 L2265.4387,99.1033 C2265.3797,99.0023 2265.3667,98.8813 2265.4007,98.7693 L2275.3967,66.0873 C2275.4477,65.9203 2275.5937,65.8033 2275.7677,65.7893 L2299.0077,63.9713 C2299.1807,63.9573 2299.3437,64.0503 2299.4197,64.2073 L2314.3767,94.9383 C2314.4287,95.0433 2314.4337,95.1653 2314.3917,95.2743 L2305.4987,118.4693 C2305.4407,118.6203 2305.3007,118.7253 2305.1377,118.7383 L2305.1377,118.7383 Z" id="Fill-22" fill="#4B262F" mask="url(#mask-4)"></path>
                        <path d="M2272.5269,100.7483 L2307.6439,98.0013 L2308.9399,94.6193 L2297.0009,70.0873 L2278.7009,71.5183 L2270.7209,97.6093 L2272.5269,100.7483 Z M2307.9759,98.8213 L2272.3269,101.6103 C2272.1639,101.6233 2272.0089,101.5413 2271.9289,101.4003 L2269.8979,97.8713 C2269.8389,97.7703 2269.8259,97.6483 2269.8599,97.5373 L2277.9779,70.9973 C2278.0289,70.8303 2278.1749,70.7133 2278.3489,70.6993 L2297.2219,69.2233 C2297.3949,69.2093 2297.5579,69.3023 2297.6339,69.4593 L2309.7789,94.4143 C2309.8309,94.5193 2309.8359,94.6413 2309.7939,94.7503 L2308.3369,98.5523 C2308.2789,98.7033 2308.1389,98.8083 2307.9759,98.8213 L2307.9759,98.8213 Z" id="Fill-23" fill="#4B262F" mask="url(#mask-4)"></path>
                        <path d="M2273.4316,102.3192 L2306.9936,99.6932 L2307.3086,98.8732 L2272.9936,101.5582 L2273.4316,102.3192 Z M2307.3256,100.5142 L2273.2316,103.1812 C2273.0686,103.1942 2272.9136,103.1122 2272.8326,102.9712 L2271.9286,101.4002 C2271.8556,101.2752 2271.8526,101.1212 2271.9206,100.9922 C2271.9886,100.8652 2272.1176,100.7802 2272.2616,100.7692 L2307.9106,97.9802 C2308.0546,97.9692 2308.1946,98.0322 2308.2816,98.1482 C2308.3686,98.2642 2308.3886,98.4172 2308.3366,98.5522 L2307.6866,100.2442 C2307.6286,100.3972 2307.4886,100.5012 2307.3256,100.5142 L2307.3256,100.5142 Z" id="Fill-24" fill="#4B262F" mask="url(#mask-4)"></path>
                        <path d="M2274.5276,104.2229 L2306.2096,101.7439 L2306.6596,100.5659 L2273.8986,103.1289 L2274.5276,104.2229 Z M2306.5406,102.5649 L2274.3276,105.0849 C2274.1646,105.0979 2274.0096,105.0159 2273.9296,104.8749 L2272.8326,102.9709 C2272.7606,102.8459 2272.7576,102.6919 2272.8246,102.5639 C2272.8926,102.4359 2273.0216,102.3509 2273.1656,102.3399 L2307.2596,99.6729 C2307.4036,99.6619 2307.5436,99.7249 2307.6306,99.8409 C2307.7176,99.9559 2307.7386,100.1089 2307.6866,100.2449 L2306.9026,102.2959 C2306.8436,102.4469 2306.7036,102.5519 2306.5406,102.5649 L2306.5406,102.5649 Z" id="Fill-25" fill="#4B262F" mask="url(#mask-4)"></path>
                        <path d="M2268.2241,42.3415 L2283.8551,41.1185 L2283.7811,40.1795 L2268.1511,41.4015 L2268.2241,42.3415 Z M2284.3411,41.9265 L2267.8691,43.2155 C2267.6371,43.2335 2267.4341,43.0605 2267.4161,42.8275 L2267.2761,41.0475 C2267.2581,40.8145 2267.4311,40.6115 2267.6641,40.5935 L2284.1361,39.3055 C2284.3691,39.2865 2284.5711,39.4605 2284.5901,39.6925 L2284.7291,41.4735 C2284.7471,41.7065 2284.5741,41.9085 2284.3411,41.9265 L2284.3411,41.9265 Z" id="Fill-26" fill="#4B262F" mask="url(#mask-4)"></path>
                    </g>
                </g>
            </g>
        </g>
    </g>
</svg>