<?xml version="1.0" encoding="UTF-8" standalone="no"?>
<svg width="43px" height="40px" viewBox="0 0 43 40" version="1.1" xmlns="http://www.w3.org/2000/svg" xmlns:xlink="http://www.w3.org/1999/xlink">
    <!-- Generator: sketchtool 41.2 (35397) - http://www.bohemiancoding.com/sketch -->
    <title>5D9FAB98-96F9-4BB3-B841-89BB88262342</title>
    <desc>Created with sketchtool.</desc>
    <defs>
        <polygon id="path-1" points="0.228807407 19.1304348 16.8918815 19.1304348 16.8918815 0.347826087 0.228807407 0.347826087 0.228807407 19.1304348"></polygon>
        <polygon id="path-3" points="0 0.0672173913 0 12.4576522 6.91784775 12.4576522 6.91784775 0.0672173913"></polygon>
    </defs>
    <g id="desktop-/-home" stroke="none" stroke-width="1" fill="none" fill-rule="evenodd">
        <g id="1-Desktop-Home" transform="translate(-399.000000, -1970.000000)">
            <g id="eventos-por-categorias" transform="translate(208.000000, 1549.000000)">
                <g id="eventos-destacados" transform="translate(0.000000, 194.000000)">
                    <g id="Group-31">
                        <g id="icon" transform="translate(191.000000, 227.000000)">
                            <ellipse id="Oval-6" fill="#6AC4C7" cx="22" cy="20" rx="19" ry="19"></ellipse>
                            <g id="Page-1" transform="translate(11.000000, 10.000000)">
                                <g id="Group-3" transform="translate(2.555556, 0.521913)">
                                    <mask id="mask-2" fill="white">
                                        <use xlink:href="#path-1"></use>
                                    </mask>
                                    <g id="Clip-2"></g>
                                    <path d="M16.239363,18.09 C16.239363,18.2926087 16.0264,18.463913 15.7742519,18.463913 L1.34643704,18.463913 C1.09428889,18.463913 0.881325926,18.2926087 0.881325926,18.09 L0.881325926,16.7134783 C0.881325926,15.8691304 1.39328889,14.8682609 2.37121481,14.5778261 L4.83306667,14.2013043 C5.19765926,15.8195652 6.74036296,17.0021739 8.55991852,17.0021739 C10.3803259,17.0021739 11.9230296,15.8195652 12.2876222,14.2013043 L14.7494741,14.5778261 C15.7274,14.8682609 16.239363,15.8691304 16.239363,16.7134783 L16.239363,18.09 Z M4.7104,7.90565217 C4.7121037,7.88565217 4.7121037,7.86565217 4.7104,7.84565217 L4.7104,6.01 C4.7104,5.41 5.18828889,4.92217391 5.77606667,4.92217391 L11.6930296,4.92217391 C11.8727704,4.92217391 12.0192889,4.7726087 12.0192889,4.58913043 C12.0192889,4.40478261 11.8727704,4.25608696 11.6930296,4.25608696 L5.77606667,4.25608696 C4.82880741,4.25608696 4.05788148,5.04304348 4.05788148,6.01 L4.05788148,7.01347826 C3.80402963,6.61434783 3.66602963,6.14478261 3.66602963,5.65434783 L3.66602963,3.87782609 C3.66602963,2.88652174 4.45654815,2.07956522 5.42765926,2.07956522 C5.60825185,2.07956522 5.75391852,1.93086957 5.75391852,1.74652174 C5.75391852,1.34217391 6.07591852,1.01347826 6.47202963,1.01347826 L10.9970667,1.01347826 C12.352363,1.01347826 13.4546593,2.13956522 13.4546593,3.52304348 L13.4546593,5.65434783 C13.4546593,6.14478261 13.3166593,6.61434783 13.0628074,7.01347826 L13.0628074,5.65434783 C13.0628074,5.47086957 12.9171407,5.32130435 12.7365481,5.32130435 C12.5568074,5.32130435 12.4102889,5.47086957 12.4102889,5.65434783 L12.4102889,8.14217391 C12.4102889,10.5047826 10.6835852,12.4273913 8.55991852,12.4273913 C6.4371037,12.4273913 4.7104,10.5047826 4.7104,8.14217391 L4.7104,7.90565217 Z M8.55991852,13.0934783 C9.4714,13.0934783 10.3198444,12.7943478 11.029437,12.2804348 C11.0609556,12.8882609 11.1844741,13.5630435 11.6683259,13.97 C11.4068074,15.3308696 10.1051778,16.3352174 8.55991852,16.3352174 C7.01551111,16.3352174 5.71388148,15.3308696 5.45236296,13.97 C5.93706667,13.5630435 6.05973333,12.8882609 6.09125185,12.2804348 C6.80084444,12.7943478 7.64928889,13.0934783 8.55991852,13.0934783 L8.55991852,13.0934783 Z M14.9070667,13.9308696 C14.8942889,13.9273913 14.8806593,13.9247826 14.8670296,13.9221739 L12.1521778,13.5065217 C11.7134741,13.2169565 11.6717333,12.4978261 11.6708815,11.7186957 C12.5286963,10.8169565 13.0628074,9.54652174 13.0628074,8.14217391 L13.0628074,8.02826087 C13.7289556,7.42478261 14.1071778,6.56913043 14.1071778,5.65521739 L14.1071778,3.52304348 C14.1071778,1.77173913 12.7118444,0.347391304 10.9970667,0.347391304 L6.47202963,0.347391304 C5.82291852,0.347391304 5.27688148,0.810869565 5.13632593,1.43086957 C3.94202963,1.57869565 3.01351111,2.61956522 3.01351111,3.87869565 L3.01351111,5.65521739 C3.01351111,6.56913043 3.39173333,7.42478261 4.05788148,8.02826087 L4.05788148,8.14217391 C4.05788148,9.54652174 4.59199259,10.8169565 5.44980741,11.7186957 C5.44895556,12.4978261 5.40721481,13.2169565 4.96851111,13.5065217 L2.25365926,13.9221739 C2.24002963,13.9247826 2.2264,13.9273913 2.21362222,13.9308696 C1.61647407,14.1021739 1.10791852,14.4795652 0.744177778,15.0247826 C0.411955556,15.5213043 0.228807407,16.1213043 0.228807407,16.7134783 L0.228807407,18.09 C0.228807407,18.663913 0.730548148,19.1308696 1.34643704,19.1308696 L15.7742519,19.1308696 C16.3901407,19.1308696 16.8918815,18.663913 16.8918815,18.09 L16.8918815,16.7134783 C16.8918815,16.1213043 16.7087333,15.5213043 16.3765111,15.0247826 C16.0119185,14.4804348 15.5042148,14.1021739 14.9070667,13.9308696 L14.9070667,13.9308696 Z" id="Fill-1" fill="#FFFFFF" mask="url(#mask-2)"></path>
                                </g>
                                <g id="Group-6" transform="translate(0.000000, 4.000174)">
                                    <mask id="mask-4" fill="white">
                                        <use xlink:href="#path-3"></use>
                                    </mask>
                                    <g id="Clip-5"></g>
                                    <path d="M2.06650741,11.7915652 L0.838137037,11.7915652 C0.731655556,11.7915652 0.652433333,11.7254783 0.652433333,11.6672174 L0.652433333,10.775913 C0.652433333,10.275913 0.952285185,9.6846087 1.52558148,9.50982609 L3.30254444,9.23765217 C3.31021111,9.23678261 3.31702593,9.23504348 3.32469259,9.23330435 C3.3281,9.23243478 3.33150741,9.23243478 3.33491481,9.23156522 C3.34684074,9.22808696 3.35876667,9.22373913 3.36984074,9.2193913 C3.37324815,9.21852174 3.3758037,9.21678261 3.37835926,9.21591304 C3.38772963,9.21156522 3.3971,9.20721739 3.40647037,9.20286957 C3.40732222,9.202 3.40902593,9.20113043 3.41072963,9.20026087 C3.41328519,9.19852174 3.41584074,9.19678261 3.41924815,9.19504348 C3.4218037,9.19417391 3.42435926,9.19243478 3.42606296,9.19069565 C3.82132222,8.96113043 3.95847037,8.54373913 4.00532222,8.13678261 C4.43891481,8.39852174 4.9363963,8.54895652 5.4653963,8.54895652 C5.90835926,8.54895652 6.33684074,8.44547826 6.73635926,8.24286957 C6.89821111,8.16113043 6.9638037,7.96113043 6.88372963,7.79591304 C6.8028037,7.63156522 6.60687778,7.5646087 6.44587778,7.64634783 C6.13750741,7.80286957 5.80698889,7.88286957 5.4653963,7.88286957 C4.1543963,7.88286957 3.08872963,6.69156522 3.08872963,5.22721739 L3.08872963,3.80634783 C3.08872963,3.48286957 3.34684074,3.22026087 3.66372963,3.22026087 L4.5028037,3.22026087 C4.6833963,3.22026087 4.82906296,3.07069565 4.82906296,2.88721739 C4.82906296,2.70286957 4.6833963,2.55417391 4.5028037,2.55417391 L3.66372963,2.55417391 C2.98650741,2.55417391 2.43621111,3.11591304 2.43621111,3.80634783 L2.43621111,3.98113043 C2.4081,3.86373913 2.39276667,3.742 2.39276667,3.61852174 L2.39276667,2.46895652 C2.39276667,1.89243478 2.85276667,1.42286957 3.41754444,1.42286957 C3.59813704,1.42286957 3.7438037,1.27330435 3.7438037,1.08982609 C3.7438037,0.893304348 3.90054444,0.733304348 4.09306296,0.733304348 L4.5028037,0.733304348 C4.6833963,0.733304348 4.82906296,0.58373913 4.82906296,0.40026087 C4.82906296,0.215913043 4.6833963,0.0672173913 4.5028037,0.0672173913 L4.09306296,0.0672173913 C3.64669259,0.0672173913 3.26676667,0.367217391 3.13813704,0.78026087 C2.34591481,0.916782609 1.74024815,1.622 1.74024815,2.46895652 L1.74024815,3.61852174 C1.74024815,4.23504348 1.9923963,4.81330435 2.43621111,5.2246087 L2.43621111,5.22721739 C2.43621111,6.17156522 2.79824815,7.0246087 3.37750741,7.62982609 C3.3741,8.05417391 3.34258148,8.43330435 3.13728519,8.58982609 L1.40802593,8.85417391 C1.3943963,8.85678261 1.38076667,8.8593913 1.36798889,8.86286957 C0.470137037,9.12026087 -8.51851851e-05,10.0202609 -8.51851851e-05,10.775913 L-8.51851851e-05,11.6672174 C-8.51851851e-05,12.1028696 0.375581481,12.4576522 0.838137037,12.4576522 L2.06650741,12.4576522 C2.24624815,12.4576522 2.39276667,12.308087 2.39276667,12.1246087 C2.39276667,11.9411304 2.24624815,11.7915652 2.06650741,11.7915652" id="Fill-4" fill="#FFFFFF" mask="url(#mask-4)"></path>
                                </g>
                                <path d="M20.8635556,12.8631304 C20.8507778,12.8596522 20.8371481,12.8561739 20.8235185,12.8544348 L19.0951111,12.590087 C18.8898148,12.4335652 18.8582963,12.0544348 18.854037,11.630087 C19.4332963,11.0248696 19.7953333,10.1718261 19.7953333,9.22747826 L19.7953333,9.22486957 C20.2391481,8.81356522 20.4912963,8.23530435 20.4912963,7.61791304 L20.4912963,5.8213913 C20.4912963,4.85356522 19.7203704,4.0666087 18.7731111,4.0666087 L17.7287407,4.0666087 C17.549,4.0666087 17.4024815,4.21617391 17.4024815,4.40052174 C17.4024815,4.584 17.549,4.73356522 17.7287407,4.73356522 L18.7731111,4.73356522 C19.3608889,4.73356522 19.8387778,5.2213913 19.8387778,5.8213913 L19.8387778,7.61878261 C19.8387778,7.74226087 19.8234444,7.864 19.7953333,7.9813913 L19.7953333,7.8066087 C19.7953333,7.11617391 19.245037,6.55443478 18.5686667,6.55443478 L17.7287407,6.55443478 C17.549,6.55443478 17.4024815,6.70313043 17.4024815,6.88747826 C17.4024815,7.07095652 17.549,7.22052174 17.7287407,7.22052174 L18.5686667,7.22052174 C18.8855556,7.22052174 19.1428148,7.48313043 19.1428148,7.8066087 L19.1428148,9.22747826 C19.1428148,10.6918261 18.0771481,11.8831304 16.767,11.8831304 C16.4245556,11.8831304 16.0948889,11.8031304 15.7856667,11.6466087 C15.6246667,11.5648696 15.4287407,11.6318261 15.3486667,11.7961739 C15.2677407,11.9613913 15.3341852,12.1613913 15.4951852,12.2431304 C15.8947037,12.4457391 16.3231852,12.5492174 16.767,12.5492174 C17.296,12.5492174 17.7926296,12.3987826 18.2262222,12.1370435 C18.2730741,12.544 18.4102222,12.9605217 18.8054815,13.1909565 C18.808037,13.1926957 18.8105926,13.1944348 18.8122963,13.1953043 C18.8157037,13.1970435 18.8182593,13.1987826 18.8208148,13.2005217 C18.8208148,13.2005217 18.8242222,13.2022609 18.8259259,13.2031304 C18.8344444,13.2074783 18.8438148,13.2118261 18.8531852,13.2161739 C18.8557407,13.2170435 18.8591481,13.2187826 18.8617037,13.2196522 C18.8736296,13.224 18.8847037,13.2283478 18.8966296,13.2309565 C18.900037,13.2318261 18.9034444,13.2326957 18.9068519,13.2335652 C18.9145185,13.2353043 18.9221852,13.2370435 18.9298519,13.237913 L20.705963,13.510087 C21.2792593,13.684 21.5791111,14.2761739 21.5791111,14.7761739 L21.5791111,15.6666087 C21.5791111,15.7257391 21.4998889,15.7918261 21.3934074,15.7918261 L20.165037,15.7918261 C19.9852963,15.7918261 19.8387778,15.9405217 19.8387778,16.1248696 C19.8387778,16.3083478 19.9852963,16.457913 20.165037,16.457913 L21.3934074,16.457913 C21.855963,16.457913 22.2316296,16.1031304 22.2316296,15.6666087 L22.2316296,14.7761739 C22.2316296,14.0196522 21.7622593,13.1205217 20.8635556,12.8631304" id="Fill-7" fill="#FFFFFF"></path>
                            </g>
                        </g>
                    </g>
                </g>
            </g>
        </g>
    </g>
</svg>