<?xml version="1.0" encoding="UTF-8" standalone="no"?>
<svg width="74px" height="53px" viewBox="0 0 74 53" version="1.1" xmlns="http://www.w3.org/2000/svg" xmlns:xlink="http://www.w3.org/1999/xlink">
    <!-- Generator: sketchtool 41.2 (35397) - http://www.bohemiancoding.com/sketch -->
    <title>83951E85-C58D-4FA1-AD32-F5BB1684B604</title>
    <desc>Created with sketchtool.</desc>
    <defs></defs>
    <g id="desktop-/-home" stroke="none" stroke-width="1" fill="none" fill-rule="evenodd">
        <g id="1-Desktop-Home" transform="translate(-1064.000000, -5752.000000)">
            <g id="logo-4" transform="translate(1064.000000, 5752.000000)">
                <g id="Group-27" transform="translate(9.000000, 4.000000)">
                    <path d="M36.5447207,8.64153858 C36.0996564,10.4312967 35.5428682,12.4434002 34.8755771,14.6784599 C34.2070649,16.9135196 33.5049745,19.1565202 32.7674744,21.4068509 C32.0305847,23.6577924 31.4548706,25.2899541 31.040332,26.3039467 C29.9194294,29.0386727 28.5067014,30.4057303 26.8027586,30.4057303 C25.7429074,30.4057303 25.0524167,30.0563304 24.7300657,29.3569198 C24.4077146,28.65812 24.2459285,28.0320101 24.2459285,27.4792009 C24.2459285,26.6038686 24.6146786,24.7792927 25.3515683,22.0066947 C26.0884579,19.2334859 26.979197,16.2843555 28.0231748,13.1580818 C29.0671527,10.031808 29.9499551,7.70817667 30.6721924,6.18718769 C30.9945435,5.44990508 31.5311848,4.65886865 32.2839478,3.81346754 C33.0367108,2.96928812 33.9115764,2.54658757 34.9097658,2.54658757 C35.6466555,2.54658757 36.2144329,2.79214483 36.6137087,3.28387018 C37.0129844,3.77559553 37.2126223,4.38276944 37.2126223,5.10417024 C37.2126223,5.6728613 36.9897849,6.85178047 36.5447207,8.64153858 L36.5447207,8.64153858 Z M40.6901065,14.7939085 C41.2432317,12.0976653 41.5197942,9.92002449 41.5197942,8.26159675 C41.5197942,7.64709277 41.4617955,6.95928812 41.3470189,6.19879363 C41.2316319,5.43829914 40.9471327,4.61244489 40.4947423,3.72123086 C40.0417413,2.83062768 39.3665135,2.08968004 38.4678378,1.4977771 C37.5697726,0.907095836 36.398808,0.610838947 34.9561648,0.610838947 C33.3431885,0.610838947 31.9042084,0.933361911 30.6373932,1.57840784 C29.3705779,2.22345377 28.3113372,3.0034951 27.4590605,3.91731017 C26.6067838,4.83173607 25.8814939,5.79563993 25.2825803,6.80963258 C23.5780269,9.72822107 22.2959488,12.8777067 21.4363459,16.2568677 C20.5761326,19.6366396 20.1469417,22.3402128 20.1469417,24.3681981 C20.1469417,26.2734048 20.5877323,28.0784339 21.4711452,29.7832854 C22.3539476,31.4887477 24.1458043,32.3414789 26.8485471,32.3414789 C29.3974405,32.3414789 31.6313089,31.4233879 33.550763,29.5878169 C35.4702171,27.751635 37.0013847,25.5013043 38.1448762,22.8356032 C39.2889783,20.1705129 40.1375919,17.4901516 40.6901065,14.7939085 L40.6901065,14.7939085 Z" id="Fill-1" fill="#FFFFFF"></path>
                    <path d="M55.7471981,16.0840003 C57.1983884,14.6405879 58.2960915,13.1690769 59.0409178,11.6712998 C59.7845231,10.1735227 60.1575468,8.56457287 60.1575468,6.84383956 C60.1575468,4.86166718 59.4127205,3.22645132 57.9236783,1.93513778 C56.4340257,0.645045928 54.2386196,0 51.3368494,0 C49.5553714,0 48.0242038,0.299311084 46.7421257,0.898544091 C45.4594371,1.4977771 44.4929944,2.2851485 43.8397451,3.2606583 C43.1877168,4.2361681 42.8617026,5.24649571 42.8617026,6.29041947 C42.8617026,7.3196831 43.1639068,8.24571494 43.7707571,9.06729333 C44.3769969,9.88948255 44.8879966,10.2999663 45.3025352,10.2999663 C45.6248862,10.2999663 45.9393006,10.2077296 46.2469994,10.0238671 L47.8129662,9.12532303 C48.2580304,8.86388396 48.4808678,8.65680955 48.4808678,8.50287814 C48.4808678,8.44179424 48.4234796,8.34528169 48.3080925,8.21456216 C48.1927055,8.08445346 48.0736554,7.95739896 47.9515527,7.83462033 C47.0449404,6.92813533 46.5925499,6.03692131 46.5925499,5.1615891 C46.5925499,4.37849357 46.9185641,3.663812 47.5712029,3.01876607 C48.2238417,2.37310931 49.2330203,2.05058634 50.5999598,2.05058634 C51.520614,2.05058634 52.2923029,2.24666565 52.9138055,2.63821341 C53.5359187,3.02976118 54.0035719,3.57524036 54.3192073,4.27465095 C54.6336217,4.9734507 54.7911342,5.73761023 54.7911342,6.56712952 C54.7911342,8.24204991 54.3149337,10.0122612 53.3631434,11.8783742 C52.411353,13.745098 51.2214624,15.4542254 49.7940821,17.0057563 C48.8722069,17.9885961 47.8856173,18.9952587 46.8343132,20.0239115 C45.7823987,21.053786 44.7109477,22.0677786 43.6211813,23.0658895 C42.5308044,24.0646111 41.6370128,24.8788595 40.9385855,25.5086344 C40.2395477,26.1390202 39.321946,26.9373867 38.1857806,27.9049556 L37.2413164,31.0159584 L49.8856591,31.0159584 C50.6378116,31.0159584 51.0144984,31.2615156 51.0144984,31.753241 C51.0144984,31.9835273 50.9528365,32.2217544 50.8295128,32.4679225 L52.9486048,32.4679225 L54.7911342,26.6374648 L42.147402,26.6374648 C46.6768008,23.3963533 49.7128838,21.1875597 51.2562617,20.0129164 C52.7996395,18.8376623 54.2960078,17.5280236 55.7471981,16.0840003" id="Fill-3" fill="#FFFFFF"></path>
                    <path d="M13.4380101,16.3607103 C12.908695,17.9818769 11.7755822,18.7918494 10.0411136,18.7918494 C8.87381204,18.7918494 8.00321995,18.3886957 7.42689532,17.5817774 C6.8511812,16.77547 6.49036779,15.8769259 6.34445509,14.8861451 C6.19854239,13.8953644 6.12528078,12.8086819 6.12528078,11.624876 C6.12528078,9.59750153 6.19060572,8.00748775 6.32125558,6.8554455 C6.45190544,5.70340325 6.80172961,4.74744029 7.36950706,3.98633497 C7.93728451,3.22645132 8.8127607,2.84589865 9.99532513,2.84589865 C11.699268,2.84589865 12.8317703,3.58745713 13.3922216,5.06935242 C13.9520624,6.55246938 14.232288,8.4222474 14.232288,10.680519 C14.232288,12.8465539 13.9679357,14.7401546 13.4380101,16.3607103 M19.1615731,7.73138855 C18.4857348,5.93368953 17.6181952,4.52448408 16.5589545,3.50255052 C15.4997138,2.4812278 14.3824743,1.74394519 13.2078466,1.29009186 C12.0332188,0.837460196 10.9159793,0.610838947 9.8573491,0.610838947 C8.27550892,0.610838947 6.72846801,1.01765769 5.21622635,1.831906 C3.70337419,2.64615432 2.45548483,3.86416718 1.47377931,5.4847229 C0.490852761,7.10527863 0,9.03736222 0,11.279752 C0,13.5074816 0.471926846,15.3509936 1.41639105,16.809677 C2.36024474,18.2695821 3.51960966,19.3330527 4.89387529,20.0013105 C6.2675304,20.6701791 7.56120826,21.004308 8.77429836,21.004308 C9.72608872,21.004308 10.6473534,20.8198347 11.5380924,20.4508879 C12.0912176,20.2206017 12.8201706,19.836384 13.7261724,19.2988457 C13.572323,20.989037 13.3537593,22.5827159 13.06926,24.0798821 C12.7847608,25.5776592 12.2554457,26.9569336 11.4807042,28.2164835 C10.7047417,29.4760334 9.62657504,30.1058083 8.24437274,30.1058083 C7.13934351,30.1058083 6.17961647,29.56094 5.36580213,28.4699816 C4.85907602,27.7943938 4.43660076,27.3179394 4.09898686,27.0412293 C3.76137296,26.7645193 3.32363486,26.6264697 2.78638309,26.6264697 C2.14168095,26.6264697 1.62335509,26.84515 1.2314055,27.2831216 C0.840066417,27.7210931 0.644702134,28.2091534 0.644702134,28.7466917 C0.644702134,29.6525658 1.13189181,30.4784201 2.1074922,31.2236436 C3.08187156,31.9688671 4.59045014,32.3414789 6.63261741,32.3414789 C8.78162452,32.3414789 10.7047417,31.8644137 12.4019689,30.9121157 C14.0979751,29.9604287 15.5223028,28.6428491 16.673731,26.9605986 C17.8251593,25.2783481 18.6969724,23.3389345 19.2879493,21.1423576 C19.8789263,18.9457808 20.1750253,16.6337554 20.1750253,14.2062814 C20.1750253,11.6871816 19.8368009,9.52847673 19.1615731,7.73138855" id="Fill-5" fill="#FFFFFF"></path>
                    <path d="M60.759513,28.11203 C60.5409492,27.698492 60.2698813,27.3894075 59.9463092,27.1841656 C59.6227371,26.9795346 59.3046596,26.8769137 58.9945188,26.8769137 C58.5647174,26.8769137 58.1898622,27.0192391 57.8693427,27.3032792 C57.5482126,27.5879302 57.3882581,27.9684829 57.3882581,28.4437156 C57.3882581,28.8737462 57.5402759,29.2329195 57.8449221,29.5206246 C58.1477368,29.8083298 58.4792455,29.9518769 58.8357853,29.9518769 C59.0403073,29.9518769 59.2027039,29.9323301 59.321754,29.8926255 C59.4737718,29.8596402 59.5824432,29.8431476 59.6483787,29.8431476 C59.7613236,29.8431476 59.8467955,29.8895713 59.9066258,29.981808 C59.9658456,30.0740447 59.9957608,30.1931583 59.9957608,30.3391488 C59.9957608,30.907229 59.7704813,31.3787967 59.321754,31.7526301 C58.8724161,32.1258527 58.2771656,32.3854593 57.5372234,32.5314498 L57.5372234,33.4434323 C58.2771656,33.3444764 58.9163731,33.1166335 59.4554564,32.7592927 C59.9939292,32.4019519 60.4005311,31.9487094 60.6746517,31.4001761 C60.9487722,30.8516427 61.0861377,30.2530205 61.0861377,29.6049204 C61.0861377,29.0227909 60.9774663,28.5249571 60.759513,28.11203" id="Fill-7" fill="#FFFFFF"></path>
                    <text id="Est.-2010" font-family="Baskerville-BoldItalic, Baskerville" font-size="4.84919297" font-style="italic" font-weight="bold" fill="#EFECEB">
                        <tspan x="18.3154015" y="37.5961421">Est. </tspan>
                        <tspan x="18.3154015" y="42.5961421">2010</tspan>
                    </text>
                </g>
            </g>
        </g>
    </g>
</svg>