<?xml version="1.0" encoding="UTF-8" standalone="no"?>
<svg width="63px" height="54px" viewBox="0 0 63 54" version="1.1" xmlns="http://www.w3.org/2000/svg" xmlns:xlink="http://www.w3.org/1999/xlink">
    <!-- Generator: sketchtool 41.2 (35397) - http://www.bohemiancoding.com/sketch -->
    <title>2EED63BE-01D5-4E3A-8088-E10200B4A6D0</title>
    <desc>Created with sketchtool.</desc>
    <defs>
        <polygon id="path-1" points="57.7555169 49.2249822 6 49.2249822 6 6.00045183 57.7555169 6.00045183 57.7555169 49.2249822"></polygon>
    </defs>
    <g id="desktop-/-home" stroke="none" stroke-width="1" fill="none" fill-rule="evenodd">
        <g id="1-Desktop-Home" transform="translate(-429.000000, -5407.000000)">
            <g id="newsletter-y-redes" transform="translate(-881.000000, 5075.000000)">
                <g id="Group-50" transform="translate(1101.000000, 190.000000)">
                    <g id="Group-40" transform="translate(75.000000, 141.000000)">
                        <g id="twitter-icon" transform="translate(133.525547, 0.611111)">
                            <mask id="mask-2" fill="white">
                                <use xlink:href="#path-1"></use>
                            </mask>
                            <g id="Clip-2"></g>
                            <path d="M57.7559566,11.1181296 C55.8532772,11.9845179 53.804407,12.5730294 51.658809,12.8350921 C53.8505725,11.4829841 55.5323169,9.34581767 56.3292219,6.79861347 C54.2770541,8.04680001 52.0028521,8.95611237 49.5857568,9.44635034 C47.6479037,7.32386844 44.8878645,6 41.8332452,6 C35.9669253,6 31.2151732,10.8876952 31.2151732,16.9117484 C31.2151732,17.7657113 31.3075042,18.6016009 31.489968,19.3990848 C22.6657566,18.9427343 14.8395999,14.5994969 9.60420893,7.9948393 C8.68749339,9.60900995 8.1664824,11.4829841 8.1664824,13.4823417 C8.1664824,17.2698254 10.0405831,20.6111248 12.8874575,22.5664287 C11.1463575,22.5099497 9.51187787,22.0174526 8.07744888,21.1996363 L8.07744888,21.3385747 C8.07744888,26.6227526 11.7388151,31.0337648 16.5949893,32.0357027 C15.7057532,32.2864696 14.7670541,32.4208897 13.7997763,32.4208897 C13.1160868,32.4208897 12.4499841,32.3531149 11.8003692,32.2266018 C13.1545581,36.5619321 17.0753306,39.7157211 21.7226607,39.8038284 C18.0876748,42.7328308 13.509593,44.4723849 8.53360829,44.4723849 C7.67405008,44.4723849 6.82768201,44.4249425 6,44.3221507 C10.6978923,47.4172015 16.2784256,49.22566 22.2744487,49.22566 C41.8057657,49.22566 52.4897886,32.5948451 52.4897886,18.175749 C52.4897886,17.7024548 52.4776976,17.2336788 52.4590115,16.7649029 C54.5353612,15.2264142 56.3336186,13.303868 57.7559566,11.1181296" id="Fill-1" fill="#3F1922" mask="url(#mask-2)"></path>
                        </g>
                    </g>
                </g>
            </g>
        </g>
    </g>
</svg>